<?xml version="1.0" encoding="UTF-8" standalone="no"?><!-- Generator: Gravit.io --><svg xmlns="http://www.w3.org/2000/svg" xmlns:xlink="http://www.w3.org/1999/xlink" style="isolation:isolate" viewBox="0 0 400 150" width="400pt" height="150pt"><defs><clipPath id="_clipPath_ySvcoClFcxkDNyaIoXeqXEPusO6o8BxI"><rect width="400" height="150"/></clipPath></defs><g clip-path="url(#_clipPath_ySvcoClFcxkDNyaIoXeqXEPusO6o8BxI)"><g><mask id="_mask_VNVvRdhbjOFWD9VtoWMixOTIaI7UwKoO" x="-200%" y="-200%" width="400%" height="400%"><rect x="-200%" y="-200%" width="400%" height="400%" style="fill:white;"/><path d=" M 44.232 57.273 L 44.232 57.273 L 44.232 57.273 Q 47.659 56.14 50.675 55.177 L 50.675 55.177 L 50.675 55.177 Q 53.691 54.214 57.033 53.351 L 57.033 53.351 L 57.033 53.351 Q 60.375 52.487 63.433 51.977 L 63.433 51.977 L 63.433 51.977 Q 65.784 51.581 68.248 51.581 L 68.248 51.581 L 68.248 51.581 Q 72.354 51.581 73.628 51.807 L 73.628 51.807 L 73.628 51.807 Q 75.554 52.175 77.268 52.997 L 77.268 52.997 L 77.268 52.997 Q 78.981 53.818 80.326 55.191 L 80.326 55.191 L 80.326 55.191 Q 81.671 56.565 82.521 58.434 L 82.521 58.434 L 82.521 58.434 Q 82.861 59.199 82.861 60.048 L 82.861 60.048 L 82.861 60.048 Q 82.861 63.22 79.392 67.865 L 79.392 67.865 L 79.392 67.865 Q 75.922 72.509 72.425 75.964 L 72.425 75.964 L 72.425 75.964 Q 68.927 79.419 67.2 80.92 L 67.2 80.92 L 72.297 98.791 L 64.877 104.143 L 51.878 67.015 L 51.878 67.015 Q 51.822 67.015 51.34 67.553 L 51.34 67.553 L 51.34 67.553 Q 50.859 68.091 50.08 68.955 L 50.08 68.955 L 50.08 68.955 Q 49.301 69.819 49.103 70.017 L 49.103 70.017 L 49.103 70.017 Q 49.018 70.017 48.551 68.799 L 48.551 68.799 L 48.551 68.799 Q 48.083 67.582 47.305 65.415 L 47.305 65.415 L 47.305 65.415 Q 46.526 63.249 45.549 60.601 L 45.549 60.601 L 45.549 60.601 Q 44.572 57.953 44.232 57.273 Z  M 62.555 65.146 L 62.555 65.146 L 64.877 73.5 L 64.877 73.5 Q 66.633 71.716 69.239 68.629 L 69.239 68.629 L 69.239 68.629 Q 71.844 65.542 71.844 64.155 L 71.844 64.155 L 71.844 64.155 Q 71.844 63.617 71.391 63.532 L 71.391 63.532 L 71.391 63.532 Q 70.117 63.249 68.871 63.249 L 68.871 63.249 L 68.871 63.249 Q 65.132 63.249 62.555 65.146 Z  M 107.129 71.603 L 107.129 71.603 L 107.129 71.603 Q 109.14 72.679 110.4 74.506 L 110.4 74.506 L 110.4 74.506 Q 111.661 76.333 112.241 78.612 L 112.241 78.612 L 112.241 78.612 Q 112.822 80.892 112.822 83.356 L 112.822 83.356 L 112.822 83.356 Q 112.822 85.395 112.496 87.292 L 112.496 87.292 L 112.496 87.292 Q 112.17 89.19 111.604 90.776 L 111.604 90.776 L 111.604 90.776 Q 111.038 92.362 110.273 93.466 L 110.273 93.466 L 110.273 93.466 Q 108.489 96.128 106.45 98.054 L 106.45 98.054 L 106.45 98.054 Q 104.411 99.98 102.287 101.155 L 102.287 101.155 L 102.287 101.155 Q 100.163 102.331 98.081 102.883 L 98.081 102.883 L 98.081 102.883 Q 96 103.435 93.96 103.435 L 93.96 103.435 L 93.96 103.435 Q 91.553 103.435 89.387 102.685 L 89.387 102.685 L 89.387 102.685 Q 87.22 101.934 85.691 100.716 L 85.691 100.716 L 85.691 100.716 Q 83.17 98.621 81.754 95.066 L 81.754 95.066 L 81.754 95.066 Q 80.338 91.512 80.338 87.547 L 80.338 87.547 L 80.338 87.547 Q 80.338 80.722 84.275 76.531 L 84.275 76.531 L 84.275 76.531 Q 87.645 72.934 91.242 71.107 L 91.242 71.107 L 91.242 71.107 Q 94.838 69.281 98.605 69.281 L 98.605 69.281 L 98.605 69.281 Q 100.814 69.281 102.853 69.833 L 102.853 69.833 L 102.853 69.833 Q 104.892 70.385 107.129 71.603 Z  M 105.458 76.361 L 105.458 76.361 L 105.458 76.361 Q 104.977 78.513 103.377 80.156 L 103.377 80.156 L 103.377 80.156 Q 101.777 81.798 100.248 81.798 L 100.248 81.798 L 100.248 81.798 Q 99.483 81.798 98.888 81.402 L 98.888 81.402 L 98.888 81.402 Q 98.039 80.722 98.039 79.023 L 98.039 79.023 L 98.039 79.023 Q 98.039 77.72 98.902 76.446 L 98.902 76.446 L 98.902 76.446 Q 99.766 75.171 101.635 74.435 L 101.635 74.435 L 101.635 74.435 Q 99.766 74.435 98.024 75.143 L 98.024 75.143 L 98.024 75.143 Q 96.283 75.851 95.037 76.97 L 95.037 76.97 L 95.037 76.97 Q 93.791 78.088 93.04 79.49 L 93.04 79.49 L 93.04 79.49 Q 92.29 80.892 92.29 82.308 L 92.29 82.308 L 92.29 82.308 Q 92.29 84.942 94.725 86.5 L 94.725 86.5 L 94.725 86.5 Q 96.991 87.944 99.03 87.944 L 99.03 87.944 L 99.03 87.944 Q 101.041 87.944 102.598 86.599 L 102.598 86.599 L 102.598 86.599 Q 104.156 85.253 104.977 83.144 L 104.977 83.144 L 104.977 83.144 Q 105.798 81.034 105.798 78.966 L 105.798 78.966 L 105.798 78.966 Q 105.798 77.55 105.458 76.361 Z  M 109.733 61.917 L 111.121 54.951 L 125.507 48.918 L 127.603 81.628 L 139.441 75.143 L 151.732 76.984 L 135.703 89.275 L 150.797 100.66 L 151.477 112.016 L 129.217 96.015 L 129.925 109.92 L 116.445 110.175 L 113.896 60.983 L 109.733 61.917 Z  M 174.443 86.613 L 174.443 86.613 L 181.268 94.854 L 181.268 94.854 Q 180.447 97.233 177.374 99.215 L 177.374 99.215 L 177.374 99.215 Q 174.301 101.198 170.067 102.345 L 170.067 102.345 L 170.067 102.345 Q 165.833 103.492 161.614 103.492 L 161.614 103.492 L 161.614 103.492 Q 157.875 103.492 154.944 102.5 L 154.944 102.5 L 154.944 102.5 Q 152.013 101.509 150.427 99.499 L 150.427 99.499 L 150.427 99.499 Q 147.68 96.043 147.68 90.663 L 147.68 90.663 L 147.68 90.663 Q 147.68 86.415 149.224 82.294 L 149.224 82.294 L 149.224 82.294 Q 150.767 78.173 152.495 76.531 L 152.495 76.531 L 152.495 76.531 Q 154.562 74.577 156.983 73.274 L 156.983 73.274 L 156.983 73.274 Q 159.405 71.971 162.01 71.32 L 162.01 71.32 L 162.01 71.32 Q 164.616 70.668 167.363 70.668 L 167.363 70.668 L 167.363 70.668 Q 170.959 70.668 174.202 71.815 L 174.202 71.815 L 174.202 71.815 Q 177.445 72.962 179.88 75.143 L 179.88 75.143 L 164.333 93.693 L 164.333 93.693 Q 166.4 93.693 168.255 92.829 L 168.255 92.829 L 168.255 92.829 Q 170.11 91.965 171.667 90.365 L 171.667 90.365 L 171.667 90.365 Q 173.225 88.765 174.443 86.613 Z  M 157.904 90.776 L 166.598 80.014 L 166.598 80.014 Q 165.21 79.306 163.766 79.306 L 163.766 79.306 L 163.766 79.306 Q 162.237 79.306 160.807 79.929 L 160.807 79.929 L 160.807 79.929 Q 159.376 80.552 158.782 81.402 L 158.782 81.402 L 158.782 81.402 Q 157.026 83.667 157.026 86.386 L 157.026 86.386 L 157.026 86.386 Q 157.026 87.377 157.224 88.284 L 157.224 88.284 L 157.224 88.284 Q 157.422 89.19 157.904 90.776 L 157.904 90.776 Z  M 199.136 74.548 L 199.136 74.548 L 199.136 74.548 Q 197.579 74.747 196.063 75.54 L 196.063 75.54 L 196.063 75.54 Q 194.548 76.333 193.472 77.409 L 193.472 77.409 L 193.472 77.409 Q 192.396 78.485 191.787 79.773 L 191.787 79.773 L 191.787 79.773 Q 191.178 81.062 191.178 82.308 L 191.178 82.308 L 191.178 82.308 Q 191.178 84.885 193.614 86.5 L 193.614 86.5 L 193.614 86.5 Q 195.766 87.944 197.975 87.944 L 197.975 87.944 L 197.975 87.944 Q 198.4 87.944 199.136 87.831 L 199.136 87.831 L 199.136 81.798 L 199.136 81.798 Q 198.372 81.798 197.777 81.402 L 197.777 81.402 L 197.777 81.402 Q 196.927 80.722 196.927 78.796 L 196.927 78.796 L 196.927 78.796 Q 196.927 76.021 199.136 74.548 Z  M 199.136 69.337 L 198.881 47.049 L 210.719 41.725 L 211.427 80.071 L 211.427 80.071 Q 211.654 81.543 211.654 83.413 L 211.654 83.413 L 211.654 83.413 Q 211.654 85.055 211.541 85.848 L 211.541 85.848 L 211.88 103.208 L 199.136 103.888 L 199.136 102.161 L 199.136 102.161 Q 196.021 103.435 192.849 103.435 L 192.849 103.435 L 192.849 103.435 Q 190.414 103.435 188.275 102.699 L 188.275 102.699 L 188.275 102.699 Q 186.137 101.962 184.58 100.716 L 184.58 100.716 L 184.58 100.716 Q 182.059 98.621 180.643 95.066 L 180.643 95.066 L 180.643 95.066 Q 179.227 91.512 179.227 87.547 L 179.227 87.547 L 179.227 87.547 Q 179.227 80.722 183.164 76.531 L 183.164 76.531 L 183.164 76.531 Q 186.562 72.962 190.173 71.122 L 190.173 71.122 L 190.173 71.122 Q 193.784 69.281 197.55 69.281 L 197.55 69.281 L 197.55 69.281 Q 198.598 69.281 199.136 69.337 L 199.136 69.337 Z  M 238.443 86.613 L 238.443 86.613 L 245.268 94.854 L 245.268 94.854 Q 244.447 97.233 241.374 99.215 L 241.374 99.215 L 241.374 99.215 Q 238.301 101.198 234.067 102.345 L 234.067 102.345 L 234.067 102.345 Q 229.833 103.492 225.614 103.492 L 225.614 103.492 L 225.614 103.492 Q 221.875 103.492 218.944 102.5 L 218.944 102.5 L 218.944 102.5 Q 216.013 101.509 214.427 99.499 L 214.427 99.499 L 214.427 99.499 Q 211.68 96.043 211.68 90.663 L 211.68 90.663 L 211.68 90.663 Q 211.68 86.415 213.224 82.294 L 213.224 82.294 L 213.224 82.294 Q 214.767 78.173 216.495 76.531 L 216.495 76.531 L 216.495 76.531 Q 218.562 74.577 220.983 73.274 L 220.983 73.274 L 220.983 73.274 Q 223.405 71.971 226.01 71.32 L 226.01 71.32 L 226.01 71.32 Q 228.616 70.668 231.363 70.668 L 231.363 70.668 L 231.363 70.668 Q 234.959 70.668 238.202 71.815 L 238.202 71.815 L 238.202 71.815 Q 241.445 72.962 243.88 75.143 L 243.88 75.143 L 228.333 93.693 L 228.333 93.693 Q 230.4 93.693 232.255 92.829 L 232.255 92.829 L 232.255 92.829 Q 234.11 91.965 235.667 90.365 L 235.667 90.365 L 235.667 90.365 Q 237.225 88.765 238.443 86.613 Z  M 221.904 90.776 L 230.598 80.014 L 230.598 80.014 Q 229.21 79.306 227.766 79.306 L 227.766 79.306 L 227.766 79.306 Q 226.237 79.306 224.807 79.929 L 224.807 79.929 L 224.807 79.929 Q 223.376 80.552 222.782 81.402 L 222.782 81.402 L 222.782 81.402 Q 221.026 83.667 221.026 86.386 L 221.026 86.386 L 221.026 86.386 Q 221.026 87.377 221.224 88.284 L 221.224 88.284 L 221.224 88.284 Q 221.422 89.19 221.904 90.776 L 221.904 90.776 Z  M 271.462 105.757 L 264.637 96.893 L 257.784 105.757 L 243.17 106.21 L 257.331 87.491 L 241.33 66.789 L 256.849 67.468 L 264.637 77.749 L 272.397 67.468 L 287.945 66.789 L 271.944 87.491 L 286.104 106.21 L 271.462 105.757 Z  M 275.17 111.563 L 306.04 50.08 L 333.878 117.114 L 322.041 118.275 L 308.815 87.434 L 301.395 86.273 L 289.812 110.855 L 275.17 111.563 Z  M 305.813 69.564 L 301.876 79.533 L 308.588 80.467 L 305.813 69.564 Z  M 343.477 64.24 L 341.381 89.275 L 355.768 89.501 L 355.542 101.821 L 321.444 101.821 L 322.832 90.917 L 330.733 90.663 L 331.866 66.081 L 319.575 68.176 L 320.283 54.724 L 354.607 49.598 L 355.315 61.917 L 343.477 64.24 Z " fill="black" stroke="none"/></mask><path d=" M 44.232 57.273 L 44.232 57.273 L 44.232 57.273 Q 47.659 56.14 50.675 55.177 L 50.675 55.177 L 50.675 55.177 Q 53.691 54.214 57.033 53.351 L 57.033 53.351 L 57.033 53.351 Q 60.375 52.487 63.433 51.977 L 63.433 51.977 L 63.433 51.977 Q 65.784 51.581 68.248 51.581 L 68.248 51.581 L 68.248 51.581 Q 72.354 51.581 73.628 51.807 L 73.628 51.807 L 73.628 51.807 Q 75.554 52.175 77.268 52.997 L 77.268 52.997 L 77.268 52.997 Q 78.981 53.818 80.326 55.191 L 80.326 55.191 L 80.326 55.191 Q 81.671 56.565 82.521 58.434 L 82.521 58.434 L 82.521 58.434 Q 82.861 59.199 82.861 60.048 L 82.861 60.048 L 82.861 60.048 Q 82.861 63.22 79.392 67.865 L 79.392 67.865 L 79.392 67.865 Q 75.922 72.509 72.425 75.964 L 72.425 75.964 L 72.425 75.964 Q 68.927 79.419 67.2 80.92 L 67.2 80.92 L 72.297 98.791 L 64.877 104.143 L 51.878 67.015 L 51.878 67.015 Q 51.822 67.015 51.34 67.553 L 51.34 67.553 L 51.34 67.553 Q 50.859 68.091 50.08 68.955 L 50.08 68.955 L 50.08 68.955 Q 49.301 69.819 49.103 70.017 L 49.103 70.017 L 49.103 70.017 Q 49.018 70.017 48.551 68.799 L 48.551 68.799 L 48.551 68.799 Q 48.083 67.582 47.305 65.415 L 47.305 65.415 L 47.305 65.415 Q 46.526 63.249 45.549 60.601 L 45.549 60.601 L 45.549 60.601 Q 44.572 57.953 44.232 57.273 Z  M 62.555 65.146 L 62.555 65.146 L 64.877 73.5 L 64.877 73.5 Q 66.633 71.716 69.239 68.629 L 69.239 68.629 L 69.239 68.629 Q 71.844 65.542 71.844 64.155 L 71.844 64.155 L 71.844 64.155 Q 71.844 63.617 71.391 63.532 L 71.391 63.532 L 71.391 63.532 Q 70.117 63.249 68.871 63.249 L 68.871 63.249 L 68.871 63.249 Q 65.132 63.249 62.555 65.146 Z  M 107.129 71.603 L 107.129 71.603 L 107.129 71.603 Q 109.14 72.679 110.4 74.506 L 110.4 74.506 L 110.4 74.506 Q 111.661 76.333 112.241 78.612 L 112.241 78.612 L 112.241 78.612 Q 112.822 80.892 112.822 83.356 L 112.822 83.356 L 112.822 83.356 Q 112.822 85.395 112.496 87.292 L 112.496 87.292 L 112.496 87.292 Q 112.17 89.19 111.604 90.776 L 111.604 90.776 L 111.604 90.776 Q 111.038 92.362 110.273 93.466 L 110.273 93.466 L 110.273 93.466 Q 108.489 96.128 106.45 98.054 L 106.45 98.054 L 106.45 98.054 Q 104.411 99.98 102.287 101.155 L 102.287 101.155 L 102.287 101.155 Q 100.163 102.331 98.081 102.883 L 98.081 102.883 L 98.081 102.883 Q 96 103.435 93.96 103.435 L 93.96 103.435 L 93.96 103.435 Q 91.553 103.435 89.387 102.685 L 89.387 102.685 L 89.387 102.685 Q 87.22 101.934 85.691 100.716 L 85.691 100.716 L 85.691 100.716 Q 83.17 98.621 81.754 95.066 L 81.754 95.066 L 81.754 95.066 Q 80.338 91.512 80.338 87.547 L 80.338 87.547 L 80.338 87.547 Q 80.338 80.722 84.275 76.531 L 84.275 76.531 L 84.275 76.531 Q 87.645 72.934 91.242 71.107 L 91.242 71.107 L 91.242 71.107 Q 94.838 69.281 98.605 69.281 L 98.605 69.281 L 98.605 69.281 Q 100.814 69.281 102.853 69.833 L 102.853 69.833 L 102.853 69.833 Q 104.892 70.385 107.129 71.603 Z  M 105.458 76.361 L 105.458 76.361 L 105.458 76.361 Q 104.977 78.513 103.377 80.156 L 103.377 80.156 L 103.377 80.156 Q 101.777 81.798 100.248 81.798 L 100.248 81.798 L 100.248 81.798 Q 99.483 81.798 98.888 81.402 L 98.888 81.402 L 98.888 81.402 Q 98.039 80.722 98.039 79.023 L 98.039 79.023 L 98.039 79.023 Q 98.039 77.72 98.902 76.446 L 98.902 76.446 L 98.902 76.446 Q 99.766 75.171 101.635 74.435 L 101.635 74.435 L 101.635 74.435 Q 99.766 74.435 98.024 75.143 L 98.024 75.143 L 98.024 75.143 Q 96.283 75.851 95.037 76.97 L 95.037 76.97 L 95.037 76.97 Q 93.791 78.088 93.04 79.49 L 93.04 79.49 L 93.04 79.49 Q 92.29 80.892 92.29 82.308 L 92.29 82.308 L 92.29 82.308 Q 92.29 84.942 94.725 86.5 L 94.725 86.5 L 94.725 86.5 Q 96.991 87.944 99.03 87.944 L 99.03 87.944 L 99.03 87.944 Q 101.041 87.944 102.598 86.599 L 102.598 86.599 L 102.598 86.599 Q 104.156 85.253 104.977 83.144 L 104.977 83.144 L 104.977 83.144 Q 105.798 81.034 105.798 78.966 L 105.798 78.966 L 105.798 78.966 Q 105.798 77.55 105.458 76.361 Z  M 109.733 61.917 L 111.121 54.951 L 125.507 48.918 L 127.603 81.628 L 139.441 75.143 L 151.732 76.984 L 135.703 89.275 L 150.797 100.66 L 151.477 112.016 L 129.217 96.015 L 129.925 109.92 L 116.445 110.175 L 113.896 60.983 L 109.733 61.917 Z  M 174.443 86.613 L 174.443 86.613 L 181.268 94.854 L 181.268 94.854 Q 180.447 97.233 177.374 99.215 L 177.374 99.215 L 177.374 99.215 Q 174.301 101.198 170.067 102.345 L 170.067 102.345 L 170.067 102.345 Q 165.833 103.492 161.614 103.492 L 161.614 103.492 L 161.614 103.492 Q 157.875 103.492 154.944 102.5 L 154.944 102.5 L 154.944 102.5 Q 152.013 101.509 150.427 99.499 L 150.427 99.499 L 150.427 99.499 Q 147.68 96.043 147.68 90.663 L 147.68 90.663 L 147.68 90.663 Q 147.68 86.415 149.224 82.294 L 149.224 82.294 L 149.224 82.294 Q 150.767 78.173 152.495 76.531 L 152.495 76.531 L 152.495 76.531 Q 154.562 74.577 156.983 73.274 L 156.983 73.274 L 156.983 73.274 Q 159.405 71.971 162.01 71.32 L 162.01 71.32 L 162.01 71.32 Q 164.616 70.668 167.363 70.668 L 167.363 70.668 L 167.363 70.668 Q 170.959 70.668 174.202 71.815 L 174.202 71.815 L 174.202 71.815 Q 177.445 72.962 179.88 75.143 L 179.88 75.143 L 164.333 93.693 L 164.333 93.693 Q 166.4 93.693 168.255 92.829 L 168.255 92.829 L 168.255 92.829 Q 170.11 91.965 171.667 90.365 L 171.667 90.365 L 171.667 90.365 Q 173.225 88.765 174.443 86.613 Z  M 157.904 90.776 L 166.598 80.014 L 166.598 80.014 Q 165.21 79.306 163.766 79.306 L 163.766 79.306 L 163.766 79.306 Q 162.237 79.306 160.807 79.929 L 160.807 79.929 L 160.807 79.929 Q 159.376 80.552 158.782 81.402 L 158.782 81.402 L 158.782 81.402 Q 157.026 83.667 157.026 86.386 L 157.026 86.386 L 157.026 86.386 Q 157.026 87.377 157.224 88.284 L 157.224 88.284 L 157.224 88.284 Q 157.422 89.19 157.904 90.776 L 157.904 90.776 Z  M 199.136 74.548 L 199.136 74.548 L 199.136 74.548 Q 197.579 74.747 196.063 75.54 L 196.063 75.54 L 196.063 75.54 Q 194.548 76.333 193.472 77.409 L 193.472 77.409 L 193.472 77.409 Q 192.396 78.485 191.787 79.773 L 191.787 79.773 L 191.787 79.773 Q 191.178 81.062 191.178 82.308 L 191.178 82.308 L 191.178 82.308 Q 191.178 84.885 193.614 86.5 L 193.614 86.5 L 193.614 86.5 Q 195.766 87.944 197.975 87.944 L 197.975 87.944 L 197.975 87.944 Q 198.4 87.944 199.136 87.831 L 199.136 87.831 L 199.136 81.798 L 199.136 81.798 Q 198.372 81.798 197.777 81.402 L 197.777 81.402 L 197.777 81.402 Q 196.927 80.722 196.927 78.796 L 196.927 78.796 L 196.927 78.796 Q 196.927 76.021 199.136 74.548 Z  M 199.136 69.337 L 198.881 47.049 L 210.719 41.725 L 211.427 80.071 L 211.427 80.071 Q 211.654 81.543 211.654 83.413 L 211.654 83.413 L 211.654 83.413 Q 211.654 85.055 211.541 85.848 L 211.541 85.848 L 211.88 103.208 L 199.136 103.888 L 199.136 102.161 L 199.136 102.161 Q 196.021 103.435 192.849 103.435 L 192.849 103.435 L 192.849 103.435 Q 190.414 103.435 188.275 102.699 L 188.275 102.699 L 188.275 102.699 Q 186.137 101.962 184.58 100.716 L 184.58 100.716 L 184.58 100.716 Q 182.059 98.621 180.643 95.066 L 180.643 95.066 L 180.643 95.066 Q 179.227 91.512 179.227 87.547 L 179.227 87.547 L 179.227 87.547 Q 179.227 80.722 183.164 76.531 L 183.164 76.531 L 183.164 76.531 Q 186.562 72.962 190.173 71.122 L 190.173 71.122 L 190.173 71.122 Q 193.784 69.281 197.55 69.281 L 197.55 69.281 L 197.55 69.281 Q 198.598 69.281 199.136 69.337 L 199.136 69.337 Z  M 238.443 86.613 L 238.443 86.613 L 245.268 94.854 L 245.268 94.854 Q 244.447 97.233 241.374 99.215 L 241.374 99.215 L 241.374 99.215 Q 238.301 101.198 234.067 102.345 L 234.067 102.345 L 234.067 102.345 Q 229.833 103.492 225.614 103.492 L 225.614 103.492 L 225.614 103.492 Q 221.875 103.492 218.944 102.5 L 218.944 102.5 L 218.944 102.5 Q 216.013 101.509 214.427 99.499 L 214.427 99.499 L 214.427 99.499 Q 211.68 96.043 211.68 90.663 L 211.68 90.663 L 211.68 90.663 Q 211.68 86.415 213.224 82.294 L 213.224 82.294 L 213.224 82.294 Q 214.767 78.173 216.495 76.531 L 216.495 76.531 L 216.495 76.531 Q 218.562 74.577 220.983 73.274 L 220.983 73.274 L 220.983 73.274 Q 223.405 71.971 226.01 71.32 L 226.01 71.32 L 226.01 71.32 Q 228.616 70.668 231.363 70.668 L 231.363 70.668 L 231.363 70.668 Q 234.959 70.668 238.202 71.815 L 238.202 71.815 L 238.202 71.815 Q 241.445 72.962 243.88 75.143 L 243.88 75.143 L 228.333 93.693 L 228.333 93.693 Q 230.4 93.693 232.255 92.829 L 232.255 92.829 L 232.255 92.829 Q 234.11 91.965 235.667 90.365 L 235.667 90.365 L 235.667 90.365 Q 237.225 88.765 238.443 86.613 Z  M 221.904 90.776 L 230.598 80.014 L 230.598 80.014 Q 229.21 79.306 227.766 79.306 L 227.766 79.306 L 227.766 79.306 Q 226.237 79.306 224.807 79.929 L 224.807 79.929 L 224.807 79.929 Q 223.376 80.552 222.782 81.402 L 222.782 81.402 L 222.782 81.402 Q 221.026 83.667 221.026 86.386 L 221.026 86.386 L 221.026 86.386 Q 221.026 87.377 221.224 88.284 L 221.224 88.284 L 221.224 88.284 Q 221.422 89.19 221.904 90.776 L 221.904 90.776 Z  M 271.462 105.757 L 264.637 96.893 L 257.784 105.757 L 243.17 106.21 L 257.331 87.491 L 241.33 66.789 L 256.849 67.468 L 264.637 77.749 L 272.397 67.468 L 287.945 66.789 L 271.944 87.491 L 286.104 106.21 L 271.462 105.757 Z  M 275.17 111.563 L 306.04 50.08 L 333.878 117.114 L 322.041 118.275 L 308.815 87.434 L 301.395 86.273 L 289.812 110.855 L 275.17 111.563 Z  M 305.813 69.564 L 301.876 79.533 L 308.588 80.467 L 305.813 69.564 Z  M 343.477 64.24 L 341.381 89.275 L 355.768 89.501 L 355.542 101.821 L 321.444 101.821 L 322.832 90.917 L 330.733 90.663 L 331.866 66.081 L 319.575 68.176 L 320.283 54.724 L 354.607 49.598 L 355.315 61.917 L 343.477 64.24 Z " fill="rgb(28,44,95)"/><path d=" M 44.232 57.273 L 44.232 57.273 L 44.232 57.273 Q 47.659 56.14 50.675 55.177 L 50.675 55.177 L 50.675 55.177 Q 53.691 54.214 57.033 53.351 L 57.033 53.351 L 57.033 53.351 Q 60.375 52.487 63.433 51.977 L 63.433 51.977 L 63.433 51.977 Q 65.784 51.581 68.248 51.581 L 68.248 51.581 L 68.248 51.581 Q 72.354 51.581 73.628 51.807 L 73.628 51.807 L 73.628 51.807 Q 75.554 52.175 77.268 52.997 L 77.268 52.997 L 77.268 52.997 Q 78.981 53.818 80.326 55.191 L 80.326 55.191 L 80.326 55.191 Q 81.671 56.565 82.521 58.434 L 82.521 58.434 L 82.521 58.434 Q 82.861 59.199 82.861 60.048 L 82.861 60.048 L 82.861 60.048 Q 82.861 63.22 79.392 67.865 L 79.392 67.865 L 79.392 67.865 Q 75.922 72.509 72.425 75.964 L 72.425 75.964 L 72.425 75.964 Q 68.927 79.419 67.2 80.92 L 67.2 80.92 L 72.297 98.791 L 64.877 104.143 L 51.878 67.015 L 51.878 67.015 Q 51.822 67.015 51.34 67.553 L 51.34 67.553 L 51.34 67.553 Q 50.859 68.091 50.08 68.955 L 50.08 68.955 L 50.08 68.955 Q 49.301 69.819 49.103 70.017 L 49.103 70.017 L 49.103 70.017 Q 49.018 70.017 48.551 68.799 L 48.551 68.799 L 48.551 68.799 Q 48.083 67.582 47.305 65.415 L 47.305 65.415 L 47.305 65.415 Q 46.526 63.249 45.549 60.601 L 45.549 60.601 L 45.549 60.601 Q 44.572 57.953 44.232 57.273 Z  M 62.555 65.146 L 62.555 65.146 L 64.877 73.5 L 64.877 73.5 Q 66.633 71.716 69.239 68.629 L 69.239 68.629 L 69.239 68.629 Q 71.844 65.542 71.844 64.155 L 71.844 64.155 L 71.844 64.155 Q 71.844 63.617 71.391 63.532 L 71.391 63.532 L 71.391 63.532 Q 70.117 63.249 68.871 63.249 L 68.871 63.249 L 68.871 63.249 Q 65.132 63.249 62.555 65.146 Z  M 107.129 71.603 L 107.129 71.603 L 107.129 71.603 Q 109.14 72.679 110.4 74.506 L 110.4 74.506 L 110.4 74.506 Q 111.661 76.333 112.241 78.612 L 112.241 78.612 L 112.241 78.612 Q 112.822 80.892 112.822 83.356 L 112.822 83.356 L 112.822 83.356 Q 112.822 85.395 112.496 87.292 L 112.496 87.292 L 112.496 87.292 Q 112.17 89.19 111.604 90.776 L 111.604 90.776 L 111.604 90.776 Q 111.038 92.362 110.273 93.466 L 110.273 93.466 L 110.273 93.466 Q 108.489 96.128 106.45 98.054 L 106.45 98.054 L 106.45 98.054 Q 104.411 99.98 102.287 101.155 L 102.287 101.155 L 102.287 101.155 Q 100.163 102.331 98.081 102.883 L 98.081 102.883 L 98.081 102.883 Q 96 103.435 93.96 103.435 L 93.96 103.435 L 93.96 103.435 Q 91.553 103.435 89.387 102.685 L 89.387 102.685 L 89.387 102.685 Q 87.22 101.934 85.691 100.716 L 85.691 100.716 L 85.691 100.716 Q 83.17 98.621 81.754 95.066 L 81.754 95.066 L 81.754 95.066 Q 80.338 91.512 80.338 87.547 L 80.338 87.547 L 80.338 87.547 Q 80.338 80.722 84.275 76.531 L 84.275 76.531 L 84.275 76.531 Q 87.645 72.934 91.242 71.107 L 91.242 71.107 L 91.242 71.107 Q 94.838 69.281 98.605 69.281 L 98.605 69.281 L 98.605 69.281 Q 100.814 69.281 102.853 69.833 L 102.853 69.833 L 102.853 69.833 Q 104.892 70.385 107.129 71.603 Z  M 105.458 76.361 L 105.458 76.361 L 105.458 76.361 Q 104.977 78.513 103.377 80.156 L 103.377 80.156 L 103.377 80.156 Q 101.777 81.798 100.248 81.798 L 100.248 81.798 L 100.248 81.798 Q 99.483 81.798 98.888 81.402 L 98.888 81.402 L 98.888 81.402 Q 98.039 80.722 98.039 79.023 L 98.039 79.023 L 98.039 79.023 Q 98.039 77.72 98.902 76.446 L 98.902 76.446 L 98.902 76.446 Q 99.766 75.171 101.635 74.435 L 101.635 74.435 L 101.635 74.435 Q 99.766 74.435 98.024 75.143 L 98.024 75.143 L 98.024 75.143 Q 96.283 75.851 95.037 76.97 L 95.037 76.97 L 95.037 76.97 Q 93.791 78.088 93.04 79.49 L 93.04 79.49 L 93.04 79.49 Q 92.29 80.892 92.29 82.308 L 92.29 82.308 L 92.29 82.308 Q 92.29 84.942 94.725 86.5 L 94.725 86.5 L 94.725 86.5 Q 96.991 87.944 99.03 87.944 L 99.03 87.944 L 99.03 87.944 Q 101.041 87.944 102.598 86.599 L 102.598 86.599 L 102.598 86.599 Q 104.156 85.253 104.977 83.144 L 104.977 83.144 L 104.977 83.144 Q 105.798 81.034 105.798 78.966 L 105.798 78.966 L 105.798 78.966 Q 105.798 77.55 105.458 76.361 Z  M 109.733 61.917 L 111.121 54.951 L 125.507 48.918 L 127.603 81.628 L 139.441 75.143 L 151.732 76.984 L 135.703 89.275 L 150.797 100.66 L 151.477 112.016 L 129.217 96.015 L 129.925 109.92 L 116.445 110.175 L 113.896 60.983 L 109.733 61.917 Z  M 174.443 86.613 L 174.443 86.613 L 181.268 94.854 L 181.268 94.854 Q 180.447 97.233 177.374 99.215 L 177.374 99.215 L 177.374 99.215 Q 174.301 101.198 170.067 102.345 L 170.067 102.345 L 170.067 102.345 Q 165.833 103.492 161.614 103.492 L 161.614 103.492 L 161.614 103.492 Q 157.875 103.492 154.944 102.5 L 154.944 102.5 L 154.944 102.5 Q 152.013 101.509 150.427 99.499 L 150.427 99.499 L 150.427 99.499 Q 147.68 96.043 147.68 90.663 L 147.68 90.663 L 147.68 90.663 Q 147.68 86.415 149.224 82.294 L 149.224 82.294 L 149.224 82.294 Q 150.767 78.173 152.495 76.531 L 152.495 76.531 L 152.495 76.531 Q 154.562 74.577 156.983 73.274 L 156.983 73.274 L 156.983 73.274 Q 159.405 71.971 162.01 71.32 L 162.01 71.32 L 162.01 71.32 Q 164.616 70.668 167.363 70.668 L 167.363 70.668 L 167.363 70.668 Q 170.959 70.668 174.202 71.815 L 174.202 71.815 L 174.202 71.815 Q 177.445 72.962 179.88 75.143 L 179.88 75.143 L 164.333 93.693 L 164.333 93.693 Q 166.4 93.693 168.255 92.829 L 168.255 92.829 L 168.255 92.829 Q 170.11 91.965 171.667 90.365 L 171.667 90.365 L 171.667 90.365 Q 173.225 88.765 174.443 86.613 Z  M 157.904 90.776 L 166.598 80.014 L 166.598 80.014 Q 165.21 79.306 163.766 79.306 L 163.766 79.306 L 163.766 79.306 Q 162.237 79.306 160.807 79.929 L 160.807 79.929 L 160.807 79.929 Q 159.376 80.552 158.782 81.402 L 158.782 81.402 L 158.782 81.402 Q 157.026 83.667 157.026 86.386 L 157.026 86.386 L 157.026 86.386 Q 157.026 87.377 157.224 88.284 L 157.224 88.284 L 157.224 88.284 Q 157.422 89.19 157.904 90.776 L 157.904 90.776 Z  M 199.136 74.548 L 199.136 74.548 L 199.136 74.548 Q 197.579 74.747 196.063 75.54 L 196.063 75.54 L 196.063 75.54 Q 194.548 76.333 193.472 77.409 L 193.472 77.409 L 193.472 77.409 Q 192.396 78.485 191.787 79.773 L 191.787 79.773 L 191.787 79.773 Q 191.178 81.062 191.178 82.308 L 191.178 82.308 L 191.178 82.308 Q 191.178 84.885 193.614 86.5 L 193.614 86.5 L 193.614 86.5 Q 195.766 87.944 197.975 87.944 L 197.975 87.944 L 197.975 87.944 Q 198.4 87.944 199.136 87.831 L 199.136 87.831 L 199.136 81.798 L 199.136 81.798 Q 198.372 81.798 197.777 81.402 L 197.777 81.402 L 197.777 81.402 Q 196.927 80.722 196.927 78.796 L 196.927 78.796 L 196.927 78.796 Q 196.927 76.021 199.136 74.548 Z  M 199.136 69.337 L 198.881 47.049 L 210.719 41.725 L 211.427 80.071 L 211.427 80.071 Q 211.654 81.543 211.654 83.413 L 211.654 83.413 L 211.654 83.413 Q 211.654 85.055 211.541 85.848 L 211.541 85.848 L 211.88 103.208 L 199.136 103.888 L 199.136 102.161 L 199.136 102.161 Q 196.021 103.435 192.849 103.435 L 192.849 103.435 L 192.849 103.435 Q 190.414 103.435 188.275 102.699 L 188.275 102.699 L 188.275 102.699 Q 186.137 101.962 184.58 100.716 L 184.58 100.716 L 184.58 100.716 Q 182.059 98.621 180.643 95.066 L 180.643 95.066 L 180.643 95.066 Q 179.227 91.512 179.227 87.547 L 179.227 87.547 L 179.227 87.547 Q 179.227 80.722 183.164 76.531 L 183.164 76.531 L 183.164 76.531 Q 186.562 72.962 190.173 71.122 L 190.173 71.122 L 190.173 71.122 Q 193.784 69.281 197.55 69.281 L 197.55 69.281 L 197.55 69.281 Q 198.598 69.281 199.136 69.337 L 199.136 69.337 Z  M 238.443 86.613 L 238.443 86.613 L 245.268 94.854 L 245.268 94.854 Q 244.447 97.233 241.374 99.215 L 241.374 99.215 L 241.374 99.215 Q 238.301 101.198 234.067 102.345 L 234.067 102.345 L 234.067 102.345 Q 229.833 103.492 225.614 103.492 L 225.614 103.492 L 225.614 103.492 Q 221.875 103.492 218.944 102.5 L 218.944 102.5 L 218.944 102.5 Q 216.013 101.509 214.427 99.499 L 214.427 99.499 L 214.427 99.499 Q 211.68 96.043 211.68 90.663 L 211.68 90.663 L 211.68 90.663 Q 211.68 86.415 213.224 82.294 L 213.224 82.294 L 213.224 82.294 Q 214.767 78.173 216.495 76.531 L 216.495 76.531 L 216.495 76.531 Q 218.562 74.577 220.983 73.274 L 220.983 73.274 L 220.983 73.274 Q 223.405 71.971 226.01 71.32 L 226.01 71.32 L 226.01 71.32 Q 228.616 70.668 231.363 70.668 L 231.363 70.668 L 231.363 70.668 Q 234.959 70.668 238.202 71.815 L 238.202 71.815 L 238.202 71.815 Q 241.445 72.962 243.88 75.143 L 243.88 75.143 L 228.333 93.693 L 228.333 93.693 Q 230.4 93.693 232.255 92.829 L 232.255 92.829 L 232.255 92.829 Q 234.11 91.965 235.667 90.365 L 235.667 90.365 L 235.667 90.365 Q 237.225 88.765 238.443 86.613 Z  M 221.904 90.776 L 230.598 80.014 L 230.598 80.014 Q 229.21 79.306 227.766 79.306 L 227.766 79.306 L 227.766 79.306 Q 226.237 79.306 224.807 79.929 L 224.807 79.929 L 224.807 79.929 Q 223.376 80.552 222.782 81.402 L 222.782 81.402 L 222.782 81.402 Q 221.026 83.667 221.026 86.386 L 221.026 86.386 L 221.026 86.386 Q 221.026 87.377 221.224 88.284 L 221.224 88.284 L 221.224 88.284 Q 221.422 89.19 221.904 90.776 L 221.904 90.776 Z  M 271.462 105.757 L 264.637 96.893 L 257.784 105.757 L 243.17 106.21 L 257.331 87.491 L 241.33 66.789 L 256.849 67.468 L 264.637 77.749 L 272.397 67.468 L 287.945 66.789 L 271.944 87.491 L 286.104 106.21 L 271.462 105.757 Z  M 275.17 111.563 L 306.04 50.08 L 333.878 117.114 L 322.041 118.275 L 308.815 87.434 L 301.395 86.273 L 289.812 110.855 L 275.17 111.563 Z  M 305.813 69.564 L 301.876 79.533 L 308.588 80.467 L 305.813 69.564 Z  M 343.477 64.24 L 341.381 89.275 L 355.768 89.501 L 355.542 101.821 L 321.444 101.821 L 322.832 90.917 L 330.733 90.663 L 331.866 66.081 L 319.575 68.176 L 320.283 54.724 L 354.607 49.598 L 355.315 61.917 L 343.477 64.24 Z " fill="rgb(28,44,95)" mask="url(#_mask_VNVvRdhbjOFWD9VtoWMixOTIaI7UwKoO)" vector-effect="non-scaling-stroke" stroke-width="20" stroke="rgb(28,44,95)" stroke-linejoin="round" stroke-linecap="round" stroke-miterlimit="3"/><mask id="_mask_z0KdJUMeiKc7ebQPLvGzjUyiXcpYVOF6" x="-200%" y="-200%" width="400%" height="400%"><rect x="-200%" y="-200%" width="400%" height="400%" style="fill:white;"/><path d=" M 44.232 52.273 L 44.232 52.273 L 44.232 52.273 Q 47.659 51.14 50.675 50.177 L 50.675 50.177 L 50.675 50.177 Q 53.691 49.214 57.033 48.351 L 57.033 48.351 L 57.033 48.351 Q 60.375 47.487 63.433 46.977 L 63.433 46.977 L 63.433 46.977 Q 65.784 46.581 68.248 46.581 L 68.248 46.581 L 68.248 46.581 Q 72.354 46.581 73.628 46.807 L 73.628 46.807 L 73.628 46.807 Q 75.554 47.175 77.268 47.997 L 77.268 47.997 L 77.268 47.997 Q 78.981 48.818 80.326 50.191 L 80.326 50.191 L 80.326 50.191 Q 81.671 51.565 82.521 53.434 L 82.521 53.434 L 82.521 53.434 Q 82.861 54.199 82.861 55.048 L 82.861 55.048 L 82.861 55.048 Q 82.861 58.22 79.392 62.865 L 79.392 62.865 L 79.392 62.865 Q 75.922 67.509 72.425 70.964 L 72.425 70.964 L 72.425 70.964 Q 68.927 74.419 67.2 75.92 L 67.2 75.92 L 72.297 93.791 L 64.877 99.143 L 51.878 62.015 L 51.878 62.015 Q 51.822 62.015 51.34 62.553 L 51.34 62.553 L 51.34 62.553 Q 50.859 63.091 50.08 63.955 L 50.08 63.955 L 50.08 63.955 Q 49.301 64.819 49.103 65.017 L 49.103 65.017 L 49.103 65.017 Q 49.018 65.017 48.551 63.799 L 48.551 63.799 L 48.551 63.799 Q 48.083 62.582 47.305 60.415 L 47.305 60.415 L 47.305 60.415 Q 46.526 58.249 45.549 55.601 L 45.549 55.601 L 45.549 55.601 Q 44.572 52.953 44.232 52.273 Z  M 62.555 60.146 L 62.555 60.146 L 64.877 68.5 L 64.877 68.5 Q 66.633 66.716 69.239 63.629 L 69.239 63.629 L 69.239 63.629 Q 71.844 60.542 71.844 59.155 L 71.844 59.155 L 71.844 59.155 Q 71.844 58.617 71.391 58.532 L 71.391 58.532 L 71.391 58.532 Q 70.117 58.249 68.871 58.249 L 68.871 58.249 L 68.871 58.249 Q 65.132 58.249 62.555 60.146 Z  M 107.129 66.603 L 107.129 66.603 L 107.129 66.603 Q 109.14 67.679 110.4 69.506 L 110.4 69.506 L 110.4 69.506 Q 111.661 71.333 112.241 73.612 L 112.241 73.612 L 112.241 73.612 Q 112.822 75.892 112.822 78.356 L 112.822 78.356 L 112.822 78.356 Q 112.822 80.395 112.496 82.292 L 112.496 82.292 L 112.496 82.292 Q 112.17 84.19 111.604 85.776 L 111.604 85.776 L 111.604 85.776 Q 111.038 87.362 110.273 88.466 L 110.273 88.466 L 110.273 88.466 Q 108.489 91.128 106.45 93.054 L 106.45 93.054 L 106.45 93.054 Q 104.411 94.98 102.287 96.155 L 102.287 96.155 L 102.287 96.155 Q 100.163 97.331 98.081 97.883 L 98.081 97.883 L 98.081 97.883 Q 96 98.435 93.96 98.435 L 93.96 98.435 L 93.96 98.435 Q 91.553 98.435 89.387 97.685 L 89.387 97.685 L 89.387 97.685 Q 87.22 96.934 85.691 95.716 L 85.691 95.716 L 85.691 95.716 Q 83.17 93.621 81.754 90.066 L 81.754 90.066 L 81.754 90.066 Q 80.338 86.512 80.338 82.547 L 80.338 82.547 L 80.338 82.547 Q 80.338 75.722 84.275 71.531 L 84.275 71.531 L 84.275 71.531 Q 87.645 67.934 91.242 66.107 L 91.242 66.107 L 91.242 66.107 Q 94.838 64.281 98.605 64.281 L 98.605 64.281 L 98.605 64.281 Q 100.814 64.281 102.853 64.833 L 102.853 64.833 L 102.853 64.833 Q 104.892 65.385 107.129 66.603 Z  M 105.458 71.361 L 105.458 71.361 L 105.458 71.361 Q 104.977 73.513 103.377 75.156 L 103.377 75.156 L 103.377 75.156 Q 101.777 76.798 100.248 76.798 L 100.248 76.798 L 100.248 76.798 Q 99.483 76.798 98.888 76.402 L 98.888 76.402 L 98.888 76.402 Q 98.039 75.722 98.039 74.023 L 98.039 74.023 L 98.039 74.023 Q 98.039 72.72 98.902 71.446 L 98.902 71.446 L 98.902 71.446 Q 99.766 70.171 101.635 69.435 L 101.635 69.435 L 101.635 69.435 Q 99.766 69.435 98.024 70.143 L 98.024 70.143 L 98.024 70.143 Q 96.283 70.851 95.037 71.97 L 95.037 71.97 L 95.037 71.97 Q 93.791 73.088 93.04 74.49 L 93.04 74.49 L 93.04 74.49 Q 92.29 75.892 92.29 77.308 L 92.29 77.308 L 92.29 77.308 Q 92.29 79.942 94.725 81.5 L 94.725 81.5 L 94.725 81.5 Q 96.991 82.944 99.03 82.944 L 99.03 82.944 L 99.03 82.944 Q 101.041 82.944 102.598 81.599 L 102.598 81.599 L 102.598 81.599 Q 104.156 80.253 104.977 78.144 L 104.977 78.144 L 104.977 78.144 Q 105.798 76.034 105.798 73.966 L 105.798 73.966 L 105.798 73.966 Q 105.798 72.55 105.458 71.361 Z  M 109.733 56.917 L 111.121 49.951 L 125.507 43.918 L 127.603 76.628 L 139.441 70.143 L 151.732 71.984 L 135.703 84.275 L 150.797 95.66 L 151.477 107.016 L 129.217 91.015 L 129.925 104.92 L 116.445 105.175 L 113.896 55.983 L 109.733 56.917 Z  M 174.443 81.613 L 174.443 81.613 L 181.268 89.854 L 181.268 89.854 Q 180.447 92.233 177.374 94.215 L 177.374 94.215 L 177.374 94.215 Q 174.301 96.198 170.067 97.345 L 170.067 97.345 L 170.067 97.345 Q 165.833 98.492 161.614 98.492 L 161.614 98.492 L 161.614 98.492 Q 157.875 98.492 154.944 97.5 L 154.944 97.5 L 154.944 97.5 Q 152.013 96.509 150.427 94.499 L 150.427 94.499 L 150.427 94.499 Q 147.68 91.043 147.68 85.663 L 147.68 85.663 L 147.68 85.663 Q 147.68 81.415 149.224 77.294 L 149.224 77.294 L 149.224 77.294 Q 150.767 73.173 152.495 71.531 L 152.495 71.531 L 152.495 71.531 Q 154.562 69.577 156.983 68.274 L 156.983 68.274 L 156.983 68.274 Q 159.405 66.971 162.01 66.32 L 162.01 66.32 L 162.01 66.32 Q 164.616 65.668 167.363 65.668 L 167.363 65.668 L 167.363 65.668 Q 170.959 65.668 174.202 66.815 L 174.202 66.815 L 174.202 66.815 Q 177.445 67.962 179.88 70.143 L 179.88 70.143 L 164.333 88.693 L 164.333 88.693 Q 166.4 88.693 168.255 87.829 L 168.255 87.829 L 168.255 87.829 Q 170.11 86.965 171.667 85.365 L 171.667 85.365 L 171.667 85.365 Q 173.225 83.765 174.443 81.613 Z  M 157.904 85.776 L 166.598 75.014 L 166.598 75.014 Q 165.21 74.306 163.766 74.306 L 163.766 74.306 L 163.766 74.306 Q 162.237 74.306 160.807 74.929 L 160.807 74.929 L 160.807 74.929 Q 159.376 75.552 158.782 76.402 L 158.782 76.402 L 158.782 76.402 Q 157.026 78.667 157.026 81.386 L 157.026 81.386 L 157.026 81.386 Q 157.026 82.377 157.224 83.284 L 157.224 83.284 L 157.224 83.284 Q 157.422 84.19 157.904 85.776 L 157.904 85.776 Z  M 199.136 69.548 L 199.136 69.548 L 199.136 69.548 Q 197.579 69.747 196.063 70.54 L 196.063 70.54 L 196.063 70.54 Q 194.548 71.333 193.472 72.409 L 193.472 72.409 L 193.472 72.409 Q 192.396 73.485 191.787 74.773 L 191.787 74.773 L 191.787 74.773 Q 191.178 76.062 191.178 77.308 L 191.178 77.308 L 191.178 77.308 Q 191.178 79.885 193.614 81.5 L 193.614 81.5 L 193.614 81.5 Q 195.766 82.944 197.975 82.944 L 197.975 82.944 L 197.975 82.944 Q 198.4 82.944 199.136 82.831 L 199.136 82.831 L 199.136 76.798 L 199.136 76.798 Q 198.372 76.798 197.777 76.402 L 197.777 76.402 L 197.777 76.402 Q 196.927 75.722 196.927 73.796 L 196.927 73.796 L 196.927 73.796 Q 196.927 71.021 199.136 69.548 Z  M 199.136 64.337 L 198.881 42.049 L 210.719 36.725 L 211.427 75.071 L 211.427 75.071 Q 211.654 76.543 211.654 78.413 L 211.654 78.413 L 211.654 78.413 Q 211.654 80.055 211.541 80.848 L 211.541 80.848 L 211.88 98.208 L 199.136 98.888 L 199.136 97.161 L 199.136 97.161 Q 196.021 98.435 192.849 98.435 L 192.849 98.435 L 192.849 98.435 Q 190.414 98.435 188.275 97.699 L 188.275 97.699 L 188.275 97.699 Q 186.137 96.962 184.58 95.716 L 184.58 95.716 L 184.58 95.716 Q 182.059 93.621 180.643 90.066 L 180.643 90.066 L 180.643 90.066 Q 179.227 86.512 179.227 82.547 L 179.227 82.547 L 179.227 82.547 Q 179.227 75.722 183.164 71.531 L 183.164 71.531 L 183.164 71.531 Q 186.562 67.962 190.173 66.122 L 190.173 66.122 L 190.173 66.122 Q 193.784 64.281 197.55 64.281 L 197.55 64.281 L 197.55 64.281 Q 198.598 64.281 199.136 64.337 L 199.136 64.337 Z  M 238.443 81.613 L 238.443 81.613 L 245.268 89.854 L 245.268 89.854 Q 244.447 92.233 241.374 94.215 L 241.374 94.215 L 241.374 94.215 Q 238.301 96.198 234.067 97.345 L 234.067 97.345 L 234.067 97.345 Q 229.833 98.492 225.614 98.492 L 225.614 98.492 L 225.614 98.492 Q 221.875 98.492 218.944 97.5 L 218.944 97.5 L 218.944 97.5 Q 216.013 96.509 214.427 94.499 L 214.427 94.499 L 214.427 94.499 Q 211.68 91.043 211.68 85.663 L 211.68 85.663 L 211.68 85.663 Q 211.68 81.415 213.224 77.294 L 213.224 77.294 L 213.224 77.294 Q 214.767 73.173 216.495 71.531 L 216.495 71.531 L 216.495 71.531 Q 218.562 69.577 220.983 68.274 L 220.983 68.274 L 220.983 68.274 Q 223.405 66.971 226.01 66.32 L 226.01 66.32 L 226.01 66.32 Q 228.616 65.668 231.363 65.668 L 231.363 65.668 L 231.363 65.668 Q 234.959 65.668 238.202 66.815 L 238.202 66.815 L 238.202 66.815 Q 241.445 67.962 243.88 70.143 L 243.88 70.143 L 228.333 88.693 L 228.333 88.693 Q 230.4 88.693 232.255 87.829 L 232.255 87.829 L 232.255 87.829 Q 234.11 86.965 235.667 85.365 L 235.667 85.365 L 235.667 85.365 Q 237.225 83.765 238.443 81.613 Z  M 221.904 85.776 L 230.598 75.014 L 230.598 75.014 Q 229.21 74.306 227.766 74.306 L 227.766 74.306 L 227.766 74.306 Q 226.237 74.306 224.807 74.929 L 224.807 74.929 L 224.807 74.929 Q 223.376 75.552 222.782 76.402 L 222.782 76.402 L 222.782 76.402 Q 221.026 78.667 221.026 81.386 L 221.026 81.386 L 221.026 81.386 Q 221.026 82.377 221.224 83.284 L 221.224 83.284 L 221.224 83.284 Q 221.422 84.19 221.904 85.776 L 221.904 85.776 Z  M 271.462 100.757 L 264.637 91.893 L 257.784 100.757 L 243.17 101.21 L 257.331 82.491 L 241.33 61.789 L 256.849 62.468 L 264.637 72.749 L 272.397 62.468 L 287.945 61.789 L 271.944 82.491 L 286.104 101.21 L 271.462 100.757 Z  M 275.17 106.563 L 306.04 45.08 L 333.878 112.114 L 322.041 113.275 L 308.815 82.434 L 301.395 81.273 L 289.812 105.855 L 275.17 106.563 Z  M 305.813 64.564 L 301.876 74.533 L 308.588 75.467 L 305.813 64.564 Z  M 343.477 59.24 L 341.381 84.275 L 355.768 84.501 L 355.542 96.821 L 321.444 96.821 L 322.832 85.917 L 330.733 85.663 L 331.866 61.081 L 319.575 63.176 L 320.283 49.724 L 354.607 44.598 L 355.315 56.917 L 343.477 59.24 Z " fill="black" stroke="none"/></mask><path d=" M 44.232 52.273 L 44.232 52.273 L 44.232 52.273 Q 47.659 51.14 50.675 50.177 L 50.675 50.177 L 50.675 50.177 Q 53.691 49.214 57.033 48.351 L 57.033 48.351 L 57.033 48.351 Q 60.375 47.487 63.433 46.977 L 63.433 46.977 L 63.433 46.977 Q 65.784 46.581 68.248 46.581 L 68.248 46.581 L 68.248 46.581 Q 72.354 46.581 73.628 46.807 L 73.628 46.807 L 73.628 46.807 Q 75.554 47.175 77.268 47.997 L 77.268 47.997 L 77.268 47.997 Q 78.981 48.818 80.326 50.191 L 80.326 50.191 L 80.326 50.191 Q 81.671 51.565 82.521 53.434 L 82.521 53.434 L 82.521 53.434 Q 82.861 54.199 82.861 55.048 L 82.861 55.048 L 82.861 55.048 Q 82.861 58.22 79.392 62.865 L 79.392 62.865 L 79.392 62.865 Q 75.922 67.509 72.425 70.964 L 72.425 70.964 L 72.425 70.964 Q 68.927 74.419 67.2 75.92 L 67.2 75.92 L 72.297 93.791 L 64.877 99.143 L 51.878 62.015 L 51.878 62.015 Q 51.822 62.015 51.34 62.553 L 51.34 62.553 L 51.34 62.553 Q 50.859 63.091 50.08 63.955 L 50.08 63.955 L 50.08 63.955 Q 49.301 64.819 49.103 65.017 L 49.103 65.017 L 49.103 65.017 Q 49.018 65.017 48.551 63.799 L 48.551 63.799 L 48.551 63.799 Q 48.083 62.582 47.305 60.415 L 47.305 60.415 L 47.305 60.415 Q 46.526 58.249 45.549 55.601 L 45.549 55.601 L 45.549 55.601 Q 44.572 52.953 44.232 52.273 Z  M 62.555 60.146 L 62.555 60.146 L 64.877 68.5 L 64.877 68.5 Q 66.633 66.716 69.239 63.629 L 69.239 63.629 L 69.239 63.629 Q 71.844 60.542 71.844 59.155 L 71.844 59.155 L 71.844 59.155 Q 71.844 58.617 71.391 58.532 L 71.391 58.532 L 71.391 58.532 Q 70.117 58.249 68.871 58.249 L 68.871 58.249 L 68.871 58.249 Q 65.132 58.249 62.555 60.146 Z  M 107.129 66.603 L 107.129 66.603 L 107.129 66.603 Q 109.14 67.679 110.4 69.506 L 110.4 69.506 L 110.4 69.506 Q 111.661 71.333 112.241 73.612 L 112.241 73.612 L 112.241 73.612 Q 112.822 75.892 112.822 78.356 L 112.822 78.356 L 112.822 78.356 Q 112.822 80.395 112.496 82.292 L 112.496 82.292 L 112.496 82.292 Q 112.17 84.19 111.604 85.776 L 111.604 85.776 L 111.604 85.776 Q 111.038 87.362 110.273 88.466 L 110.273 88.466 L 110.273 88.466 Q 108.489 91.128 106.45 93.054 L 106.45 93.054 L 106.45 93.054 Q 104.411 94.98 102.287 96.155 L 102.287 96.155 L 102.287 96.155 Q 100.163 97.331 98.081 97.883 L 98.081 97.883 L 98.081 97.883 Q 96 98.435 93.96 98.435 L 93.96 98.435 L 93.96 98.435 Q 91.553 98.435 89.387 97.685 L 89.387 97.685 L 89.387 97.685 Q 87.22 96.934 85.691 95.716 L 85.691 95.716 L 85.691 95.716 Q 83.17 93.621 81.754 90.066 L 81.754 90.066 L 81.754 90.066 Q 80.338 86.512 80.338 82.547 L 80.338 82.547 L 80.338 82.547 Q 80.338 75.722 84.275 71.531 L 84.275 71.531 L 84.275 71.531 Q 87.645 67.934 91.242 66.107 L 91.242 66.107 L 91.242 66.107 Q 94.838 64.281 98.605 64.281 L 98.605 64.281 L 98.605 64.281 Q 100.814 64.281 102.853 64.833 L 102.853 64.833 L 102.853 64.833 Q 104.892 65.385 107.129 66.603 Z  M 105.458 71.361 L 105.458 71.361 L 105.458 71.361 Q 104.977 73.513 103.377 75.156 L 103.377 75.156 L 103.377 75.156 Q 101.777 76.798 100.248 76.798 L 100.248 76.798 L 100.248 76.798 Q 99.483 76.798 98.888 76.402 L 98.888 76.402 L 98.888 76.402 Q 98.039 75.722 98.039 74.023 L 98.039 74.023 L 98.039 74.023 Q 98.039 72.72 98.902 71.446 L 98.902 71.446 L 98.902 71.446 Q 99.766 70.171 101.635 69.435 L 101.635 69.435 L 101.635 69.435 Q 99.766 69.435 98.024 70.143 L 98.024 70.143 L 98.024 70.143 Q 96.283 70.851 95.037 71.97 L 95.037 71.97 L 95.037 71.97 Q 93.791 73.088 93.04 74.49 L 93.04 74.49 L 93.04 74.49 Q 92.29 75.892 92.29 77.308 L 92.29 77.308 L 92.29 77.308 Q 92.29 79.942 94.725 81.5 L 94.725 81.5 L 94.725 81.5 Q 96.991 82.944 99.03 82.944 L 99.03 82.944 L 99.03 82.944 Q 101.041 82.944 102.598 81.599 L 102.598 81.599 L 102.598 81.599 Q 104.156 80.253 104.977 78.144 L 104.977 78.144 L 104.977 78.144 Q 105.798 76.034 105.798 73.966 L 105.798 73.966 L 105.798 73.966 Q 105.798 72.55 105.458 71.361 Z  M 109.733 56.917 L 111.121 49.951 L 125.507 43.918 L 127.603 76.628 L 139.441 70.143 L 151.732 71.984 L 135.703 84.275 L 150.797 95.66 L 151.477 107.016 L 129.217 91.015 L 129.925 104.92 L 116.445 105.175 L 113.896 55.983 L 109.733 56.917 Z  M 174.443 81.613 L 174.443 81.613 L 181.268 89.854 L 181.268 89.854 Q 180.447 92.233 177.374 94.215 L 177.374 94.215 L 177.374 94.215 Q 174.301 96.198 170.067 97.345 L 170.067 97.345 L 170.067 97.345 Q 165.833 98.492 161.614 98.492 L 161.614 98.492 L 161.614 98.492 Q 157.875 98.492 154.944 97.5 L 154.944 97.5 L 154.944 97.5 Q 152.013 96.509 150.427 94.499 L 150.427 94.499 L 150.427 94.499 Q 147.68 91.043 147.68 85.663 L 147.68 85.663 L 147.68 85.663 Q 147.68 81.415 149.224 77.294 L 149.224 77.294 L 149.224 77.294 Q 150.767 73.173 152.495 71.531 L 152.495 71.531 L 152.495 71.531 Q 154.562 69.577 156.983 68.274 L 156.983 68.274 L 156.983 68.274 Q 159.405 66.971 162.01 66.32 L 162.01 66.32 L 162.01 66.32 Q 164.616 65.668 167.363 65.668 L 167.363 65.668 L 167.363 65.668 Q 170.959 65.668 174.202 66.815 L 174.202 66.815 L 174.202 66.815 Q 177.445 67.962 179.88 70.143 L 179.88 70.143 L 164.333 88.693 L 164.333 88.693 Q 166.4 88.693 168.255 87.829 L 168.255 87.829 L 168.255 87.829 Q 170.11 86.965 171.667 85.365 L 171.667 85.365 L 171.667 85.365 Q 173.225 83.765 174.443 81.613 Z  M 157.904 85.776 L 166.598 75.014 L 166.598 75.014 Q 165.21 74.306 163.766 74.306 L 163.766 74.306 L 163.766 74.306 Q 162.237 74.306 160.807 74.929 L 160.807 74.929 L 160.807 74.929 Q 159.376 75.552 158.782 76.402 L 158.782 76.402 L 158.782 76.402 Q 157.026 78.667 157.026 81.386 L 157.026 81.386 L 157.026 81.386 Q 157.026 82.377 157.224 83.284 L 157.224 83.284 L 157.224 83.284 Q 157.422 84.19 157.904 85.776 L 157.904 85.776 Z  M 199.136 69.548 L 199.136 69.548 L 199.136 69.548 Q 197.579 69.747 196.063 70.54 L 196.063 70.54 L 196.063 70.54 Q 194.548 71.333 193.472 72.409 L 193.472 72.409 L 193.472 72.409 Q 192.396 73.485 191.787 74.773 L 191.787 74.773 L 191.787 74.773 Q 191.178 76.062 191.178 77.308 L 191.178 77.308 L 191.178 77.308 Q 191.178 79.885 193.614 81.5 L 193.614 81.5 L 193.614 81.5 Q 195.766 82.944 197.975 82.944 L 197.975 82.944 L 197.975 82.944 Q 198.4 82.944 199.136 82.831 L 199.136 82.831 L 199.136 76.798 L 199.136 76.798 Q 198.372 76.798 197.777 76.402 L 197.777 76.402 L 197.777 76.402 Q 196.927 75.722 196.927 73.796 L 196.927 73.796 L 196.927 73.796 Q 196.927 71.021 199.136 69.548 Z  M 199.136 64.337 L 198.881 42.049 L 210.719 36.725 L 211.427 75.071 L 211.427 75.071 Q 211.654 76.543 211.654 78.413 L 211.654 78.413 L 211.654 78.413 Q 211.654 80.055 211.541 80.848 L 211.541 80.848 L 211.88 98.208 L 199.136 98.888 L 199.136 97.161 L 199.136 97.161 Q 196.021 98.435 192.849 98.435 L 192.849 98.435 L 192.849 98.435 Q 190.414 98.435 188.275 97.699 L 188.275 97.699 L 188.275 97.699 Q 186.137 96.962 184.58 95.716 L 184.58 95.716 L 184.58 95.716 Q 182.059 93.621 180.643 90.066 L 180.643 90.066 L 180.643 90.066 Q 179.227 86.512 179.227 82.547 L 179.227 82.547 L 179.227 82.547 Q 179.227 75.722 183.164 71.531 L 183.164 71.531 L 183.164 71.531 Q 186.562 67.962 190.173 66.122 L 190.173 66.122 L 190.173 66.122 Q 193.784 64.281 197.55 64.281 L 197.55 64.281 L 197.55 64.281 Q 198.598 64.281 199.136 64.337 L 199.136 64.337 Z  M 238.443 81.613 L 238.443 81.613 L 245.268 89.854 L 245.268 89.854 Q 244.447 92.233 241.374 94.215 L 241.374 94.215 L 241.374 94.215 Q 238.301 96.198 234.067 97.345 L 234.067 97.345 L 234.067 97.345 Q 229.833 98.492 225.614 98.492 L 225.614 98.492 L 225.614 98.492 Q 221.875 98.492 218.944 97.5 L 218.944 97.5 L 218.944 97.5 Q 216.013 96.509 214.427 94.499 L 214.427 94.499 L 214.427 94.499 Q 211.68 91.043 211.68 85.663 L 211.68 85.663 L 211.68 85.663 Q 211.68 81.415 213.224 77.294 L 213.224 77.294 L 213.224 77.294 Q 214.767 73.173 216.495 71.531 L 216.495 71.531 L 216.495 71.531 Q 218.562 69.577 220.983 68.274 L 220.983 68.274 L 220.983 68.274 Q 223.405 66.971 226.01 66.32 L 226.01 66.32 L 226.01 66.32 Q 228.616 65.668 231.363 65.668 L 231.363 65.668 L 231.363 65.668 Q 234.959 65.668 238.202 66.815 L 238.202 66.815 L 238.202 66.815 Q 241.445 67.962 243.88 70.143 L 243.88 70.143 L 228.333 88.693 L 228.333 88.693 Q 230.4 88.693 232.255 87.829 L 232.255 87.829 L 232.255 87.829 Q 234.11 86.965 235.667 85.365 L 235.667 85.365 L 235.667 85.365 Q 237.225 83.765 238.443 81.613 Z  M 221.904 85.776 L 230.598 75.014 L 230.598 75.014 Q 229.21 74.306 227.766 74.306 L 227.766 74.306 L 227.766 74.306 Q 226.237 74.306 224.807 74.929 L 224.807 74.929 L 224.807 74.929 Q 223.376 75.552 222.782 76.402 L 222.782 76.402 L 222.782 76.402 Q 221.026 78.667 221.026 81.386 L 221.026 81.386 L 221.026 81.386 Q 221.026 82.377 221.224 83.284 L 221.224 83.284 L 221.224 83.284 Q 221.422 84.19 221.904 85.776 L 221.904 85.776 Z  M 271.462 100.757 L 264.637 91.893 L 257.784 100.757 L 243.17 101.21 L 257.331 82.491 L 241.33 61.789 L 256.849 62.468 L 264.637 72.749 L 272.397 62.468 L 287.945 61.789 L 271.944 82.491 L 286.104 101.21 L 271.462 100.757 Z  M 275.17 106.563 L 306.04 45.08 L 333.878 112.114 L 322.041 113.275 L 308.815 82.434 L 301.395 81.273 L 289.812 105.855 L 275.17 106.563 Z  M 305.813 64.564 L 301.876 74.533 L 308.588 75.467 L 305.813 64.564 Z  M 343.477 59.24 L 341.381 84.275 L 355.768 84.501 L 355.542 96.821 L 321.444 96.821 L 322.832 85.917 L 330.733 85.663 L 331.866 61.081 L 319.575 63.176 L 320.283 49.724 L 354.607 44.598 L 355.315 56.917 L 343.477 59.24 Z " fill="rgb(57,95,168)"/><path d=" M 44.232 52.273 L 44.232 52.273 L 44.232 52.273 Q 47.659 51.14 50.675 50.177 L 50.675 50.177 L 50.675 50.177 Q 53.691 49.214 57.033 48.351 L 57.033 48.351 L 57.033 48.351 Q 60.375 47.487 63.433 46.977 L 63.433 46.977 L 63.433 46.977 Q 65.784 46.581 68.248 46.581 L 68.248 46.581 L 68.248 46.581 Q 72.354 46.581 73.628 46.807 L 73.628 46.807 L 73.628 46.807 Q 75.554 47.175 77.268 47.997 L 77.268 47.997 L 77.268 47.997 Q 78.981 48.818 80.326 50.191 L 80.326 50.191 L 80.326 50.191 Q 81.671 51.565 82.521 53.434 L 82.521 53.434 L 82.521 53.434 Q 82.861 54.199 82.861 55.048 L 82.861 55.048 L 82.861 55.048 Q 82.861 58.22 79.392 62.865 L 79.392 62.865 L 79.392 62.865 Q 75.922 67.509 72.425 70.964 L 72.425 70.964 L 72.425 70.964 Q 68.927 74.419 67.2 75.92 L 67.2 75.92 L 72.297 93.791 L 64.877 99.143 L 51.878 62.015 L 51.878 62.015 Q 51.822 62.015 51.34 62.553 L 51.34 62.553 L 51.34 62.553 Q 50.859 63.091 50.08 63.955 L 50.08 63.955 L 50.08 63.955 Q 49.301 64.819 49.103 65.017 L 49.103 65.017 L 49.103 65.017 Q 49.018 65.017 48.551 63.799 L 48.551 63.799 L 48.551 63.799 Q 48.083 62.582 47.305 60.415 L 47.305 60.415 L 47.305 60.415 Q 46.526 58.249 45.549 55.601 L 45.549 55.601 L 45.549 55.601 Q 44.572 52.953 44.232 52.273 Z  M 62.555 60.146 L 62.555 60.146 L 64.877 68.5 L 64.877 68.5 Q 66.633 66.716 69.239 63.629 L 69.239 63.629 L 69.239 63.629 Q 71.844 60.542 71.844 59.155 L 71.844 59.155 L 71.844 59.155 Q 71.844 58.617 71.391 58.532 L 71.391 58.532 L 71.391 58.532 Q 70.117 58.249 68.871 58.249 L 68.871 58.249 L 68.871 58.249 Q 65.132 58.249 62.555 60.146 Z  M 107.129 66.603 L 107.129 66.603 L 107.129 66.603 Q 109.14 67.679 110.4 69.506 L 110.4 69.506 L 110.4 69.506 Q 111.661 71.333 112.241 73.612 L 112.241 73.612 L 112.241 73.612 Q 112.822 75.892 112.822 78.356 L 112.822 78.356 L 112.822 78.356 Q 112.822 80.395 112.496 82.292 L 112.496 82.292 L 112.496 82.292 Q 112.17 84.19 111.604 85.776 L 111.604 85.776 L 111.604 85.776 Q 111.038 87.362 110.273 88.466 L 110.273 88.466 L 110.273 88.466 Q 108.489 91.128 106.45 93.054 L 106.45 93.054 L 106.45 93.054 Q 104.411 94.98 102.287 96.155 L 102.287 96.155 L 102.287 96.155 Q 100.163 97.331 98.081 97.883 L 98.081 97.883 L 98.081 97.883 Q 96 98.435 93.96 98.435 L 93.96 98.435 L 93.96 98.435 Q 91.553 98.435 89.387 97.685 L 89.387 97.685 L 89.387 97.685 Q 87.22 96.934 85.691 95.716 L 85.691 95.716 L 85.691 95.716 Q 83.17 93.621 81.754 90.066 L 81.754 90.066 L 81.754 90.066 Q 80.338 86.512 80.338 82.547 L 80.338 82.547 L 80.338 82.547 Q 80.338 75.722 84.275 71.531 L 84.275 71.531 L 84.275 71.531 Q 87.645 67.934 91.242 66.107 L 91.242 66.107 L 91.242 66.107 Q 94.838 64.281 98.605 64.281 L 98.605 64.281 L 98.605 64.281 Q 100.814 64.281 102.853 64.833 L 102.853 64.833 L 102.853 64.833 Q 104.892 65.385 107.129 66.603 Z  M 105.458 71.361 L 105.458 71.361 L 105.458 71.361 Q 104.977 73.513 103.377 75.156 L 103.377 75.156 L 103.377 75.156 Q 101.777 76.798 100.248 76.798 L 100.248 76.798 L 100.248 76.798 Q 99.483 76.798 98.888 76.402 L 98.888 76.402 L 98.888 76.402 Q 98.039 75.722 98.039 74.023 L 98.039 74.023 L 98.039 74.023 Q 98.039 72.72 98.902 71.446 L 98.902 71.446 L 98.902 71.446 Q 99.766 70.171 101.635 69.435 L 101.635 69.435 L 101.635 69.435 Q 99.766 69.435 98.024 70.143 L 98.024 70.143 L 98.024 70.143 Q 96.283 70.851 95.037 71.97 L 95.037 71.97 L 95.037 71.97 Q 93.791 73.088 93.04 74.49 L 93.04 74.49 L 93.04 74.49 Q 92.29 75.892 92.29 77.308 L 92.29 77.308 L 92.29 77.308 Q 92.29 79.942 94.725 81.5 L 94.725 81.5 L 94.725 81.5 Q 96.991 82.944 99.03 82.944 L 99.03 82.944 L 99.03 82.944 Q 101.041 82.944 102.598 81.599 L 102.598 81.599 L 102.598 81.599 Q 104.156 80.253 104.977 78.144 L 104.977 78.144 L 104.977 78.144 Q 105.798 76.034 105.798 73.966 L 105.798 73.966 L 105.798 73.966 Q 105.798 72.55 105.458 71.361 Z  M 109.733 56.917 L 111.121 49.951 L 125.507 43.918 L 127.603 76.628 L 139.441 70.143 L 151.732 71.984 L 135.703 84.275 L 150.797 95.66 L 151.477 107.016 L 129.217 91.015 L 129.925 104.92 L 116.445 105.175 L 113.896 55.983 L 109.733 56.917 Z  M 174.443 81.613 L 174.443 81.613 L 181.268 89.854 L 181.268 89.854 Q 180.447 92.233 177.374 94.215 L 177.374 94.215 L 177.374 94.215 Q 174.301 96.198 170.067 97.345 L 170.067 97.345 L 170.067 97.345 Q 165.833 98.492 161.614 98.492 L 161.614 98.492 L 161.614 98.492 Q 157.875 98.492 154.944 97.5 L 154.944 97.5 L 154.944 97.5 Q 152.013 96.509 150.427 94.499 L 150.427 94.499 L 150.427 94.499 Q 147.68 91.043 147.68 85.663 L 147.68 85.663 L 147.68 85.663 Q 147.68 81.415 149.224 77.294 L 149.224 77.294 L 149.224 77.294 Q 150.767 73.173 152.495 71.531 L 152.495 71.531 L 152.495 71.531 Q 154.562 69.577 156.983 68.274 L 156.983 68.274 L 156.983 68.274 Q 159.405 66.971 162.01 66.32 L 162.01 66.32 L 162.01 66.32 Q 164.616 65.668 167.363 65.668 L 167.363 65.668 L 167.363 65.668 Q 170.959 65.668 174.202 66.815 L 174.202 66.815 L 174.202 66.815 Q 177.445 67.962 179.88 70.143 L 179.88 70.143 L 164.333 88.693 L 164.333 88.693 Q 166.4 88.693 168.255 87.829 L 168.255 87.829 L 168.255 87.829 Q 170.11 86.965 171.667 85.365 L 171.667 85.365 L 171.667 85.365 Q 173.225 83.765 174.443 81.613 Z  M 157.904 85.776 L 166.598 75.014 L 166.598 75.014 Q 165.21 74.306 163.766 74.306 L 163.766 74.306 L 163.766 74.306 Q 162.237 74.306 160.807 74.929 L 160.807 74.929 L 160.807 74.929 Q 159.376 75.552 158.782 76.402 L 158.782 76.402 L 158.782 76.402 Q 157.026 78.667 157.026 81.386 L 157.026 81.386 L 157.026 81.386 Q 157.026 82.377 157.224 83.284 L 157.224 83.284 L 157.224 83.284 Q 157.422 84.19 157.904 85.776 L 157.904 85.776 Z  M 199.136 69.548 L 199.136 69.548 L 199.136 69.548 Q 197.579 69.747 196.063 70.54 L 196.063 70.54 L 196.063 70.54 Q 194.548 71.333 193.472 72.409 L 193.472 72.409 L 193.472 72.409 Q 192.396 73.485 191.787 74.773 L 191.787 74.773 L 191.787 74.773 Q 191.178 76.062 191.178 77.308 L 191.178 77.308 L 191.178 77.308 Q 191.178 79.885 193.614 81.5 L 193.614 81.5 L 193.614 81.5 Q 195.766 82.944 197.975 82.944 L 197.975 82.944 L 197.975 82.944 Q 198.4 82.944 199.136 82.831 L 199.136 82.831 L 199.136 76.798 L 199.136 76.798 Q 198.372 76.798 197.777 76.402 L 197.777 76.402 L 197.777 76.402 Q 196.927 75.722 196.927 73.796 L 196.927 73.796 L 196.927 73.796 Q 196.927 71.021 199.136 69.548 Z  M 199.136 64.337 L 198.881 42.049 L 210.719 36.725 L 211.427 75.071 L 211.427 75.071 Q 211.654 76.543 211.654 78.413 L 211.654 78.413 L 211.654 78.413 Q 211.654 80.055 211.541 80.848 L 211.541 80.848 L 211.88 98.208 L 199.136 98.888 L 199.136 97.161 L 199.136 97.161 Q 196.021 98.435 192.849 98.435 L 192.849 98.435 L 192.849 98.435 Q 190.414 98.435 188.275 97.699 L 188.275 97.699 L 188.275 97.699 Q 186.137 96.962 184.58 95.716 L 184.58 95.716 L 184.58 95.716 Q 182.059 93.621 180.643 90.066 L 180.643 90.066 L 180.643 90.066 Q 179.227 86.512 179.227 82.547 L 179.227 82.547 L 179.227 82.547 Q 179.227 75.722 183.164 71.531 L 183.164 71.531 L 183.164 71.531 Q 186.562 67.962 190.173 66.122 L 190.173 66.122 L 190.173 66.122 Q 193.784 64.281 197.55 64.281 L 197.55 64.281 L 197.55 64.281 Q 198.598 64.281 199.136 64.337 L 199.136 64.337 Z  M 238.443 81.613 L 238.443 81.613 L 245.268 89.854 L 245.268 89.854 Q 244.447 92.233 241.374 94.215 L 241.374 94.215 L 241.374 94.215 Q 238.301 96.198 234.067 97.345 L 234.067 97.345 L 234.067 97.345 Q 229.833 98.492 225.614 98.492 L 225.614 98.492 L 225.614 98.492 Q 221.875 98.492 218.944 97.5 L 218.944 97.5 L 218.944 97.5 Q 216.013 96.509 214.427 94.499 L 214.427 94.499 L 214.427 94.499 Q 211.68 91.043 211.68 85.663 L 211.68 85.663 L 211.68 85.663 Q 211.68 81.415 213.224 77.294 L 213.224 77.294 L 213.224 77.294 Q 214.767 73.173 216.495 71.531 L 216.495 71.531 L 216.495 71.531 Q 218.562 69.577 220.983 68.274 L 220.983 68.274 L 220.983 68.274 Q 223.405 66.971 226.01 66.32 L 226.01 66.32 L 226.01 66.32 Q 228.616 65.668 231.363 65.668 L 231.363 65.668 L 231.363 65.668 Q 234.959 65.668 238.202 66.815 L 238.202 66.815 L 238.202 66.815 Q 241.445 67.962 243.88 70.143 L 243.88 70.143 L 228.333 88.693 L 228.333 88.693 Q 230.4 88.693 232.255 87.829 L 232.255 87.829 L 232.255 87.829 Q 234.11 86.965 235.667 85.365 L 235.667 85.365 L 235.667 85.365 Q 237.225 83.765 238.443 81.613 Z  M 221.904 85.776 L 230.598 75.014 L 230.598 75.014 Q 229.21 74.306 227.766 74.306 L 227.766 74.306 L 227.766 74.306 Q 226.237 74.306 224.807 74.929 L 224.807 74.929 L 224.807 74.929 Q 223.376 75.552 222.782 76.402 L 222.782 76.402 L 222.782 76.402 Q 221.026 78.667 221.026 81.386 L 221.026 81.386 L 221.026 81.386 Q 221.026 82.377 221.224 83.284 L 221.224 83.284 L 221.224 83.284 Q 221.422 84.19 221.904 85.776 L 221.904 85.776 Z  M 271.462 100.757 L 264.637 91.893 L 257.784 100.757 L 243.17 101.21 L 257.331 82.491 L 241.33 61.789 L 256.849 62.468 L 264.637 72.749 L 272.397 62.468 L 287.945 61.789 L 271.944 82.491 L 286.104 101.21 L 271.462 100.757 Z  M 275.17 106.563 L 306.04 45.08 L 333.878 112.114 L 322.041 113.275 L 308.815 82.434 L 301.395 81.273 L 289.812 105.855 L 275.17 106.563 Z  M 305.813 64.564 L 301.876 74.533 L 308.588 75.467 L 305.813 64.564 Z  M 343.477 59.24 L 341.381 84.275 L 355.768 84.501 L 355.542 96.821 L 321.444 96.821 L 322.832 85.917 L 330.733 85.663 L 331.866 61.081 L 319.575 63.176 L 320.283 49.724 L 354.607 44.598 L 355.315 56.917 L 343.477 59.24 Z " fill="rgb(57,95,168)" mask="url(#_mask_z0KdJUMeiKc7ebQPLvGzjUyiXcpYVOF6)" vector-effect="non-scaling-stroke" stroke-width="20" stroke="rgb(57,96,170)" stroke-linejoin="round" stroke-linecap="round" stroke-miterlimit="3"/><path d=" M 44.232 52.273 L 44.232 52.273 L 44.232 52.273 Q 47.659 51.14 50.675 50.177 L 50.675 50.177 L 50.675 50.177 Q 53.691 49.214 57.033 48.351 L 57.033 48.351 L 57.033 48.351 Q 60.375 47.487 63.433 46.977 L 63.433 46.977 L 63.433 46.977 Q 65.784 46.581 68.248 46.581 L 68.248 46.581 L 68.248 46.581 Q 72.354 46.581 73.628 46.807 L 73.628 46.807 L 73.628 46.807 Q 75.554 47.175 77.268 47.997 L 77.268 47.997 L 77.268 47.997 Q 78.981 48.818 80.326 50.191 L 80.326 50.191 L 80.326 50.191 Q 81.671 51.565 82.521 53.434 L 82.521 53.434 L 82.521 53.434 Q 82.861 54.199 82.861 55.048 L 82.861 55.048 L 82.861 55.048 Q 82.861 58.22 79.392 62.865 L 79.392 62.865 L 79.392 62.865 Q 75.922 67.509 72.425 70.964 L 72.425 70.964 L 72.425 70.964 Q 68.927 74.419 67.2 75.92 L 67.2 75.92 L 72.297 93.791 L 64.877 99.143 L 51.878 62.015 L 51.878 62.015 Q 51.822 62.015 51.34 62.553 L 51.34 62.553 L 51.34 62.553 Q 50.859 63.091 50.08 63.955 L 50.08 63.955 L 50.08 63.955 Q 49.301 64.819 49.103 65.017 L 49.103 65.017 L 49.103 65.017 Q 49.018 65.017 48.551 63.799 L 48.551 63.799 L 48.551 63.799 Q 48.083 62.582 47.305 60.415 L 47.305 60.415 L 47.305 60.415 Q 46.526 58.249 45.549 55.601 L 45.549 55.601 L 45.549 55.601 Q 44.572 52.953 44.232 52.273 Z  M 62.555 60.146 L 62.555 60.146 L 64.877 68.5 L 64.877 68.5 Q 66.633 66.716 69.239 63.629 L 69.239 63.629 L 69.239 63.629 Q 71.844 60.542 71.844 59.155 L 71.844 59.155 L 71.844 59.155 Q 71.844 58.617 71.391 58.532 L 71.391 58.532 L 71.391 58.532 Q 70.117 58.249 68.871 58.249 L 68.871 58.249 L 68.871 58.249 Q 65.132 58.249 62.555 60.146 Z  M 107.129 66.603 L 107.129 66.603 L 107.129 66.603 Q 109.14 67.679 110.4 69.506 L 110.4 69.506 L 110.4 69.506 Q 111.661 71.333 112.241 73.612 L 112.241 73.612 L 112.241 73.612 Q 112.822 75.892 112.822 78.356 L 112.822 78.356 L 112.822 78.356 Q 112.822 80.395 112.496 82.292 L 112.496 82.292 L 112.496 82.292 Q 112.17 84.19 111.604 85.776 L 111.604 85.776 L 111.604 85.776 Q 111.038 87.362 110.273 88.466 L 110.273 88.466 L 110.273 88.466 Q 108.489 91.128 106.45 93.054 L 106.45 93.054 L 106.45 93.054 Q 104.411 94.98 102.287 96.155 L 102.287 96.155 L 102.287 96.155 Q 100.163 97.331 98.081 97.883 L 98.081 97.883 L 98.081 97.883 Q 96 98.435 93.96 98.435 L 93.96 98.435 L 93.96 98.435 Q 91.553 98.435 89.387 97.685 L 89.387 97.685 L 89.387 97.685 Q 87.22 96.934 85.691 95.716 L 85.691 95.716 L 85.691 95.716 Q 83.17 93.621 81.754 90.066 L 81.754 90.066 L 81.754 90.066 Q 80.338 86.512 80.338 82.547 L 80.338 82.547 L 80.338 82.547 Q 80.338 75.722 84.275 71.531 L 84.275 71.531 L 84.275 71.531 Q 87.645 67.934 91.242 66.107 L 91.242 66.107 L 91.242 66.107 Q 94.838 64.281 98.605 64.281 L 98.605 64.281 L 98.605 64.281 Q 100.814 64.281 102.853 64.833 L 102.853 64.833 L 102.853 64.833 Q 104.892 65.385 107.129 66.603 Z  M 105.458 71.361 L 105.458 71.361 L 105.458 71.361 Q 104.977 73.513 103.377 75.156 L 103.377 75.156 L 103.377 75.156 Q 101.777 76.798 100.248 76.798 L 100.248 76.798 L 100.248 76.798 Q 99.483 76.798 98.888 76.402 L 98.888 76.402 L 98.888 76.402 Q 98.039 75.722 98.039 74.023 L 98.039 74.023 L 98.039 74.023 Q 98.039 72.72 98.902 71.446 L 98.902 71.446 L 98.902 71.446 Q 99.766 70.171 101.635 69.435 L 101.635 69.435 L 101.635 69.435 Q 99.766 69.435 98.024 70.143 L 98.024 70.143 L 98.024 70.143 Q 96.283 70.851 95.037 71.97 L 95.037 71.97 L 95.037 71.97 Q 93.791 73.088 93.04 74.49 L 93.04 74.49 L 93.04 74.49 Q 92.29 75.892 92.29 77.308 L 92.29 77.308 L 92.29 77.308 Q 92.29 79.942 94.725 81.5 L 94.725 81.5 L 94.725 81.5 Q 96.991 82.944 99.03 82.944 L 99.03 82.944 L 99.03 82.944 Q 101.041 82.944 102.598 81.599 L 102.598 81.599 L 102.598 81.599 Q 104.156 80.253 104.977 78.144 L 104.977 78.144 L 104.977 78.144 Q 105.798 76.034 105.798 73.966 L 105.798 73.966 L 105.798 73.966 Q 105.798 72.55 105.458 71.361 Z  M 109.733 56.917 L 111.121 49.951 L 125.507 43.918 L 127.603 76.628 L 139.441 70.143 L 151.732 71.984 L 135.703 84.275 L 150.797 95.66 L 151.477 107.016 L 129.217 91.015 L 129.925 104.92 L 116.445 105.175 L 113.896 55.983 L 109.733 56.917 Z  M 174.443 81.613 L 174.443 81.613 L 181.268 89.854 L 181.268 89.854 Q 180.447 92.233 177.374 94.215 L 177.374 94.215 L 177.374 94.215 Q 174.301 96.198 170.067 97.345 L 170.067 97.345 L 170.067 97.345 Q 165.833 98.492 161.614 98.492 L 161.614 98.492 L 161.614 98.492 Q 157.875 98.492 154.944 97.5 L 154.944 97.5 L 154.944 97.5 Q 152.013 96.509 150.427 94.499 L 150.427 94.499 L 150.427 94.499 Q 147.68 91.043 147.68 85.663 L 147.68 85.663 L 147.68 85.663 Q 147.68 81.415 149.224 77.294 L 149.224 77.294 L 149.224 77.294 Q 150.767 73.173 152.495 71.531 L 152.495 71.531 L 152.495 71.531 Q 154.562 69.577 156.983 68.274 L 156.983 68.274 L 156.983 68.274 Q 159.405 66.971 162.01 66.32 L 162.01 66.32 L 162.01 66.32 Q 164.616 65.668 167.363 65.668 L 167.363 65.668 L 167.363 65.668 Q 170.959 65.668 174.202 66.815 L 174.202 66.815 L 174.202 66.815 Q 177.445 67.962 179.88 70.143 L 179.88 70.143 L 164.333 88.693 L 164.333 88.693 Q 166.4 88.693 168.255 87.829 L 168.255 87.829 L 168.255 87.829 Q 170.11 86.965 171.667 85.365 L 171.667 85.365 L 171.667 85.365 Q 173.225 83.765 174.443 81.613 Z  M 157.904 85.776 L 166.598 75.014 L 166.598 75.014 Q 165.21 74.306 163.766 74.306 L 163.766 74.306 L 163.766 74.306 Q 162.237 74.306 160.807 74.929 L 160.807 74.929 L 160.807 74.929 Q 159.376 75.552 158.782 76.402 L 158.782 76.402 L 158.782 76.402 Q 157.026 78.667 157.026 81.386 L 157.026 81.386 L 157.026 81.386 Q 157.026 82.377 157.224 83.284 L 157.224 83.284 L 157.224 83.284 Q 157.422 84.19 157.904 85.776 L 157.904 85.776 Z  M 199.136 69.548 L 199.136 69.548 L 199.136 69.548 Q 197.579 69.747 196.063 70.54 L 196.063 70.54 L 196.063 70.54 Q 194.548 71.333 193.472 72.409 L 193.472 72.409 L 193.472 72.409 Q 192.396 73.485 191.787 74.773 L 191.787 74.773 L 191.787 74.773 Q 191.178 76.062 191.178 77.308 L 191.178 77.308 L 191.178 77.308 Q 191.178 79.885 193.614 81.5 L 193.614 81.5 L 193.614 81.5 Q 195.766 82.944 197.975 82.944 L 197.975 82.944 L 197.975 82.944 Q 198.4 82.944 199.136 82.831 L 199.136 82.831 L 199.136 76.798 L 199.136 76.798 Q 198.372 76.798 197.777 76.402 L 197.777 76.402 L 197.777 76.402 Q 196.927 75.722 196.927 73.796 L 196.927 73.796 L 196.927 73.796 Q 196.927 71.021 199.136 69.548 Z  M 199.136 64.337 L 198.881 42.049 L 210.719 36.725 L 211.427 75.071 L 211.427 75.071 Q 211.654 76.543 211.654 78.413 L 211.654 78.413 L 211.654 78.413 Q 211.654 80.055 211.541 80.848 L 211.541 80.848 L 211.88 98.208 L 199.136 98.888 L 199.136 97.161 L 199.136 97.161 Q 196.021 98.435 192.849 98.435 L 192.849 98.435 L 192.849 98.435 Q 190.414 98.435 188.275 97.699 L 188.275 97.699 L 188.275 97.699 Q 186.137 96.962 184.58 95.716 L 184.58 95.716 L 184.58 95.716 Q 182.059 93.621 180.643 90.066 L 180.643 90.066 L 180.643 90.066 Q 179.227 86.512 179.227 82.547 L 179.227 82.547 L 179.227 82.547 Q 179.227 75.722 183.164 71.531 L 183.164 71.531 L 183.164 71.531 Q 186.562 67.962 190.173 66.122 L 190.173 66.122 L 190.173 66.122 Q 193.784 64.281 197.55 64.281 L 197.55 64.281 L 197.55 64.281 Q 198.598 64.281 199.136 64.337 L 199.136 64.337 Z  M 238.443 81.613 L 238.443 81.613 L 245.268 89.854 L 245.268 89.854 Q 244.447 92.233 241.374 94.215 L 241.374 94.215 L 241.374 94.215 Q 238.301 96.198 234.067 97.345 L 234.067 97.345 L 234.067 97.345 Q 229.833 98.492 225.614 98.492 L 225.614 98.492 L 225.614 98.492 Q 221.875 98.492 218.944 97.5 L 218.944 97.5 L 218.944 97.5 Q 216.013 96.509 214.427 94.499 L 214.427 94.499 L 214.427 94.499 Q 211.68 91.043 211.68 85.663 L 211.68 85.663 L 211.68 85.663 Q 211.68 81.415 213.224 77.294 L 213.224 77.294 L 213.224 77.294 Q 214.767 73.173 216.495 71.531 L 216.495 71.531 L 216.495 71.531 Q 218.562 69.577 220.983 68.274 L 220.983 68.274 L 220.983 68.274 Q 223.405 66.971 226.01 66.32 L 226.01 66.32 L 226.01 66.32 Q 228.616 65.668 231.363 65.668 L 231.363 65.668 L 231.363 65.668 Q 234.959 65.668 238.202 66.815 L 238.202 66.815 L 238.202 66.815 Q 241.445 67.962 243.88 70.143 L 243.88 70.143 L 228.333 88.693 L 228.333 88.693 Q 230.4 88.693 232.255 87.829 L 232.255 87.829 L 232.255 87.829 Q 234.11 86.965 235.667 85.365 L 235.667 85.365 L 235.667 85.365 Q 237.225 83.765 238.443 81.613 Z  M 221.904 85.776 L 230.598 75.014 L 230.598 75.014 Q 229.21 74.306 227.766 74.306 L 227.766 74.306 L 227.766 74.306 Q 226.237 74.306 224.807 74.929 L 224.807 74.929 L 224.807 74.929 Q 223.376 75.552 222.782 76.402 L 222.782 76.402 L 222.782 76.402 Q 221.026 78.667 221.026 81.386 L 221.026 81.386 L 221.026 81.386 Q 221.026 82.377 221.224 83.284 L 221.224 83.284 L 221.224 83.284 Q 221.422 84.19 221.904 85.776 L 221.904 85.776 Z  M 271.462 100.757 L 264.637 91.893 L 257.784 100.757 L 243.17 101.21 L 257.331 82.491 L 241.33 61.789 L 256.849 62.468 L 264.637 72.749 L 272.397 62.468 L 287.945 61.789 L 271.944 82.491 L 286.104 101.21 L 271.462 100.757 Z  M 275.17 106.563 L 306.04 45.08 L 333.878 112.114 L 322.041 113.275 L 308.815 82.434 L 301.395 81.273 L 289.812 105.855 L 275.17 106.563 Z  M 305.813 64.564 L 301.876 74.533 L 308.588 75.467 L 305.813 64.564 Z  M 343.477 59.24 L 341.381 84.275 L 355.768 84.501 L 355.542 96.821 L 321.444 96.821 L 322.832 85.917 L 330.733 85.663 L 331.866 61.081 L 319.575 63.176 L 320.283 49.724 L 354.607 44.598 L 355.315 56.917 L 343.477 59.24 Z " fill="rgb(198,160,9)" vector-effect="non-scaling-stroke" stroke-width="2" stroke="rgb(198,161,8)" stroke-linejoin="miter" stroke-linecap="round" stroke-miterlimit="3"/><defs><filter id="B4g7DfaDMChQJQuMBxvnrN4o0yWZ8ofx" x="-200%" y="-200%" width="400%" height="400%" filterUnits="objectBoundingBox" color-interpolation-filters="sRGB"><feGaussianBlur xmlns="http://www.w3.org/2000/svg" in="SourceGraphic" stdDeviation="0"/><feOffset xmlns="http://www.w3.org/2000/svg" dx="0" dy="-2" result="pf_100_offsetBlur"/><feFlood xmlns="http://www.w3.org/2000/svg" flood-color="#C39E09" flood-opacity="1"/><feComposite xmlns="http://www.w3.org/2000/svg" in2="pf_100_offsetBlur" operator="in" result="pf_100_dropShadow"/><feBlend xmlns="http://www.w3.org/2000/svg" in="SourceGraphic" in2="pf_100_dropShadow" mode="normal"/></filter></defs><g filter="url(#B4g7DfaDMChQJQuMBxvnrN4o0yWZ8ofx)"><path d=" M 44.232 47.273 L 44.232 47.273 L 44.232 47.273 Q 47.659 46.14 50.675 45.177 L 50.675 45.177 L 50.675 45.177 Q 53.691 44.214 57.033 43.351 L 57.033 43.351 L 57.033 43.351 Q 60.375 42.487 63.433 41.977 L 63.433 41.977 L 63.433 41.977 Q 65.784 41.581 68.248 41.581 L 68.248 41.581 L 68.248 41.581 Q 72.354 41.581 73.628 41.807 L 73.628 41.807 L 73.628 41.807 Q 75.554 42.175 77.268 42.997 L 77.268 42.997 L 77.268 42.997 Q 78.981 43.818 80.326 45.191 L 80.326 45.191 L 80.326 45.191 Q 81.671 46.565 82.521 48.434 L 82.521 48.434 L 82.521 48.434 Q 82.861 49.199 82.861 50.048 L 82.861 50.048 L 82.861 50.048 Q 82.861 53.22 79.392 57.865 L 79.392 57.865 L 79.392 57.865 Q 75.922 62.509 72.425 65.964 L 72.425 65.964 L 72.425 65.964 Q 68.927 69.419 67.2 70.92 L 67.2 70.92 L 72.297 88.791 L 64.877 94.143 L 51.878 57.015 L 51.878 57.015 Q 51.822 57.015 51.34 57.553 L 51.34 57.553 L 51.34 57.553 Q 50.859 58.091 50.08 58.955 L 50.08 58.955 L 50.08 58.955 Q 49.301 59.819 49.103 60.017 L 49.103 60.017 L 49.103 60.017 Q 49.018 60.017 48.551 58.799 L 48.551 58.799 L 48.551 58.799 Q 48.083 57.582 47.305 55.415 L 47.305 55.415 L 47.305 55.415 Q 46.526 53.249 45.549 50.601 L 45.549 50.601 L 45.549 50.601 Q 44.572 47.953 44.232 47.273 Z  M 62.555 55.146 L 62.555 55.146 L 64.877 63.5 L 64.877 63.5 Q 66.633 61.716 69.239 58.629 L 69.239 58.629 L 69.239 58.629 Q 71.844 55.542 71.844 54.155 L 71.844 54.155 L 71.844 54.155 Q 71.844 53.617 71.391 53.532 L 71.391 53.532 L 71.391 53.532 Q 70.117 53.249 68.871 53.249 L 68.871 53.249 L 68.871 53.249 Q 65.132 53.249 62.555 55.146 Z  M 107.129 61.603 L 107.129 61.603 L 107.129 61.603 Q 109.14 62.679 110.4 64.506 L 110.4 64.506 L 110.4 64.506 Q 111.661 66.333 112.241 68.612 L 112.241 68.612 L 112.241 68.612 Q 112.822 70.892 112.822 73.356 L 112.822 73.356 L 112.822 73.356 Q 112.822 75.395 112.496 77.292 L 112.496 77.292 L 112.496 77.292 Q 112.17 79.19 111.604 80.776 L 111.604 80.776 L 111.604 80.776 Q 111.038 82.362 110.273 83.466 L 110.273 83.466 L 110.273 83.466 Q 108.489 86.128 106.45 88.054 L 106.45 88.054 L 106.45 88.054 Q 104.411 89.98 102.287 91.155 L 102.287 91.155 L 102.287 91.155 Q 100.163 92.331 98.081 92.883 L 98.081 92.883 L 98.081 92.883 Q 96 93.435 93.96 93.435 L 93.96 93.435 L 93.96 93.435 Q 91.553 93.435 89.387 92.685 L 89.387 92.685 L 89.387 92.685 Q 87.22 91.934 85.691 90.716 L 85.691 90.716 L 85.691 90.716 Q 83.17 88.621 81.754 85.066 L 81.754 85.066 L 81.754 85.066 Q 80.338 81.512 80.338 77.547 L 80.338 77.547 L 80.338 77.547 Q 80.338 70.722 84.275 66.531 L 84.275 66.531 L 84.275 66.531 Q 87.645 62.934 91.242 61.107 L 91.242 61.107 L 91.242 61.107 Q 94.838 59.281 98.605 59.281 L 98.605 59.281 L 98.605 59.281 Q 100.814 59.281 102.853 59.833 L 102.853 59.833 L 102.853 59.833 Q 104.892 60.385 107.129 61.603 Z  M 105.458 66.361 L 105.458 66.361 L 105.458 66.361 Q 104.977 68.513 103.377 70.156 L 103.377 70.156 L 103.377 70.156 Q 101.777 71.798 100.248 71.798 L 100.248 71.798 L 100.248 71.798 Q 99.483 71.798 98.888 71.402 L 98.888 71.402 L 98.888 71.402 Q 98.039 70.722 98.039 69.023 L 98.039 69.023 L 98.039 69.023 Q 98.039 67.72 98.902 66.446 L 98.902 66.446 L 98.902 66.446 Q 99.766 65.171 101.635 64.435 L 101.635 64.435 L 101.635 64.435 Q 99.766 64.435 98.024 65.143 L 98.024 65.143 L 98.024 65.143 Q 96.283 65.851 95.037 66.97 L 95.037 66.97 L 95.037 66.97 Q 93.791 68.088 93.04 69.49 L 93.04 69.49 L 93.04 69.49 Q 92.29 70.892 92.29 72.308 L 92.29 72.308 L 92.29 72.308 Q 92.29 74.942 94.725 76.5 L 94.725 76.5 L 94.725 76.5 Q 96.991 77.944 99.03 77.944 L 99.03 77.944 L 99.03 77.944 Q 101.041 77.944 102.598 76.599 L 102.598 76.599 L 102.598 76.599 Q 104.156 75.253 104.977 73.144 L 104.977 73.144 L 104.977 73.144 Q 105.798 71.034 105.798 68.966 L 105.798 68.966 L 105.798 68.966 Q 105.798 67.55 105.458 66.361 Z  M 109.733 51.917 L 111.121 44.951 L 125.507 38.918 L 127.603 71.628 L 139.441 65.143 L 151.732 66.984 L 135.703 79.275 L 150.797 90.66 L 151.477 102.016 L 129.217 86.015 L 129.925 99.92 L 116.445 100.175 L 113.896 50.983 L 109.733 51.917 L 109.733 51.917 Z  M 174.443 76.613 L 174.443 76.613 L 181.268 84.854 L 181.268 84.854 Q 180.447 87.233 177.374 89.215 L 177.374 89.215 L 177.374 89.215 Q 174.301 91.198 170.067 92.345 L 170.067 92.345 L 170.067 92.345 Q 165.833 93.492 161.614 93.492 L 161.614 93.492 L 161.614 93.492 Q 157.875 93.492 154.944 92.5 L 154.944 92.5 L 154.944 92.5 Q 152.013 91.509 150.427 89.499 L 150.427 89.499 L 150.427 89.499 Q 147.68 86.043 147.68 80.663 L 147.68 80.663 L 147.68 80.663 Q 147.68 76.415 149.224 72.294 L 149.224 72.294 L 149.224 72.294 Q 150.767 68.173 152.495 66.531 L 152.495 66.531 L 152.495 66.531 Q 154.562 64.577 156.983 63.274 L 156.983 63.274 L 156.983 63.274 Q 159.405 61.971 162.01 61.32 L 162.01 61.32 L 162.01 61.32 Q 164.616 60.668 167.363 60.668 L 167.363 60.668 L 167.363 60.668 Q 170.959 60.668 174.202 61.815 L 174.202 61.815 L 174.202 61.815 Q 177.445 62.962 179.88 65.143 L 179.88 65.143 L 164.333 83.693 L 164.333 83.693 Q 166.4 83.693 168.255 82.829 L 168.255 82.829 L 168.255 82.829 Q 170.11 81.965 171.667 80.365 L 171.667 80.365 L 171.667 80.365 Q 173.225 78.765 174.443 76.613 Z  M 157.904 80.776 L 166.598 70.014 L 166.598 70.014 Q 165.21 69.306 163.766 69.306 L 163.766 69.306 L 163.766 69.306 Q 162.237 69.306 160.807 69.929 L 160.807 69.929 L 160.807 69.929 Q 159.376 70.552 158.782 71.402 L 158.782 71.402 L 158.782 71.402 Q 157.026 73.667 157.026 76.386 L 157.026 76.386 L 157.026 76.386 Q 157.026 77.377 157.224 78.284 L 157.224 78.284 L 157.224 78.284 Q 157.422 79.19 157.904 80.776 L 157.904 80.776 L 157.904 80.776 Z  M 199.136 64.548 L 199.136 64.548 L 199.136 64.548 Q 197.579 64.747 196.063 65.54 L 196.063 65.54 L 196.063 65.54 Q 194.548 66.333 193.472 67.409 L 193.472 67.409 L 193.472 67.409 Q 192.396 68.485 191.787 69.773 L 191.787 69.773 L 191.787 69.773 Q 191.178 71.062 191.178 72.308 L 191.178 72.308 L 191.178 72.308 Q 191.178 74.885 193.614 76.5 L 193.614 76.5 L 193.614 76.5 Q 195.766 77.944 197.975 77.944 L 197.975 77.944 L 197.975 77.944 Q 198.4 77.944 199.136 77.831 L 199.136 77.831 L 199.136 71.798 L 199.136 71.798 Q 198.372 71.798 197.777 71.402 L 197.777 71.402 L 197.777 71.402 Q 196.927 70.722 196.927 68.796 L 196.927 68.796 L 196.927 68.796 Q 196.927 66.021 199.136 64.548 Z  M 199.136 59.337 L 198.881 37.049 L 210.719 31.725 L 211.427 70.071 L 211.427 70.071 Q 211.654 71.543 211.654 73.413 L 211.654 73.413 L 211.654 73.413 Q 211.654 75.055 211.541 75.848 L 211.541 75.848 L 211.88 93.208 L 199.136 93.888 L 199.136 92.161 L 199.136 92.161 Q 196.021 93.435 192.849 93.435 L 192.849 93.435 L 192.849 93.435 Q 190.414 93.435 188.275 92.699 L 188.275 92.699 L 188.275 92.699 Q 186.137 91.962 184.58 90.716 L 184.58 90.716 L 184.58 90.716 Q 182.059 88.621 180.643 85.066 L 180.643 85.066 L 180.643 85.066 Q 179.227 81.512 179.227 77.547 L 179.227 77.547 L 179.227 77.547 Q 179.227 70.722 183.164 66.531 L 183.164 66.531 L 183.164 66.531 Q 186.562 62.962 190.173 61.122 L 190.173 61.122 L 190.173 61.122 Q 193.784 59.281 197.55 59.281 L 197.55 59.281 L 197.55 59.281 Q 198.598 59.281 199.136 59.337 L 199.136 59.337 L 199.136 59.337 Z  M 238.443 76.613 L 238.443 76.613 L 245.268 84.854 L 245.268 84.854 Q 244.447 87.233 241.374 89.215 L 241.374 89.215 L 241.374 89.215 Q 238.301 91.198 234.067 92.345 L 234.067 92.345 L 234.067 92.345 Q 229.833 93.492 225.614 93.492 L 225.614 93.492 L 225.614 93.492 Q 221.875 93.492 218.944 92.5 L 218.944 92.5 L 218.944 92.5 Q 216.013 91.509 214.427 89.499 L 214.427 89.499 L 214.427 89.499 Q 211.68 86.043 211.68 80.663 L 211.68 80.663 L 211.68 80.663 Q 211.68 76.415 213.224 72.294 L 213.224 72.294 L 213.224 72.294 Q 214.767 68.173 216.495 66.531 L 216.495 66.531 L 216.495 66.531 Q 218.562 64.577 220.983 63.274 L 220.983 63.274 L 220.983 63.274 Q 223.405 61.971 226.01 61.32 L 226.01 61.32 L 226.01 61.32 Q 228.616 60.668 231.363 60.668 L 231.363 60.668 L 231.363 60.668 Q 234.959 60.668 238.202 61.815 L 238.202 61.815 L 238.202 61.815 Q 241.445 62.962 243.88 65.143 L 243.88 65.143 L 228.333 83.693 L 228.333 83.693 Q 230.4 83.693 232.255 82.829 L 232.255 82.829 L 232.255 82.829 Q 234.11 81.965 235.667 80.365 L 235.667 80.365 L 235.667 80.365 Q 237.225 78.765 238.443 76.613 Z  M 221.904 80.776 L 230.598 70.014 L 230.598 70.014 Q 229.21 69.306 227.766 69.306 L 227.766 69.306 L 227.766 69.306 Q 226.237 69.306 224.807 69.929 L 224.807 69.929 L 224.807 69.929 Q 223.376 70.552 222.782 71.402 L 222.782 71.402 L 222.782 71.402 Q 221.026 73.667 221.026 76.386 L 221.026 76.386 L 221.026 76.386 Q 221.026 77.377 221.224 78.284 L 221.224 78.284 L 221.224 78.284 Q 221.422 79.19 221.904 80.776 L 221.904 80.776 L 221.904 80.776 Z  M 264.637 86.893 L 257.784 95.757 L 243.17 96.21 L 257.331 77.491 L 241.33 56.789 L 256.849 57.468 L 264.637 67.749 L 272.397 57.468 L 287.945 56.789 L 271.944 77.491 L 279.554 93.054 L 275.983 99.928 L 264.637 86.893 Z  M 275.17 101.563 L 278.015 95.897 L 281.185 89.583 L 306.04 40.08 L 333.878 107.114 L 322.041 108.275 L 308.815 77.434 L 301.395 76.273 L 289.812 100.855 L 275.17 101.563 L 275.17 101.563 Z  M 305.813 59.564 L 301.876 69.533 L 308.588 70.467 L 305.813 59.564 L 305.813 59.564 Z  M 343.477 54.24 L 341.381 79.275 L 355.768 79.501 L 355.542 91.821 L 327.554 91.893 L 322.832 80.917 L 330.733 80.663 L 331.866 56.081 L 319.575 58.176 L 320.283 44.724 L 354.607 39.598 L 355.315 51.917 L 343.477 54.24 L 343.477 54.24 Z " fill-rule="evenodd" fill="rgb(255,202,4)"/></g></g></g></svg>